<?xml version="1.0" standalone="no"?>
<!DOCTYPE svg PUBLIC "-//W3C//DTD SVG 1.1//EN" "http://www.w3.org/Graphics/SVG/1.1/DTD/svg11.dtd" >
<svg xmlns="http://www.w3.org/2000/svg" xmlns:xlink="http://www.w3.org/1999/xlink" version="1.1">
<metadata>
Created by FontForge 20170731 at Mon May 17 18:43:43 2021
 By Aleksey,,,
Copyright (c) 1989 Adobe Systems Incorporated. All rights reservedMonotype Bodoni is a trademark of the Monotype Corporation plc
</metadata>
<defs>
<font id="MBodoni" horiz-adv-x="1003" >
  <font-face 
    font-family="Bodoni"
    font-weight="500"
    font-stretch="normal"
    units-per-em="2048"
    panose-1="0 0 0 0 0 0 0 0 0 0"
    ascent="1638"
    descent="-410"
    x-height="786"
    cap-height="1341"
    bbox="-207 -530 2060 1763"
    underline-thickness="83"
    underline-position="-441"
    unicode-range="U+0020-2212"
  />
<missing-glyph horiz-adv-x="681" 
 />
    <glyph glyph-name=".notdef" horiz-adv-x="681" 
 />
    <glyph glyph-name=".null" horiz-adv-x="0" 
 />
    <glyph glyph-name="nonmarkingreturn" horiz-adv-x="682" 
 />
    <glyph glyph-name="space" unicode=" " horiz-adv-x="681" 
 />
    <glyph glyph-name="exclam" unicode="!" horiz-adv-x="555" 
d="M332 406h-51v63q0 34 -0.5 64.5t-1 47.5t-0.5 19q-3 97 -15 191q-11 87 -47 262q-22 101 -22 168q0 59 32.5 97t83.5 38t83 -40t32 -102q0 -57 -25 -180q-35 -161 -48.5 -249.5t-18.5 -184.5v-133q0 -4 -1 -25t-1 -36zM305 227q53 0 90 -37.5t37 -89.5q0 -51 -36.5 -88
t-88.5 -37t-88.5 37t-36.5 90q0 51 36 88t87 37z" />
    <glyph glyph-name="quotedbl" unicode="&#x22;" horiz-adv-x="835" 
d="M211 803l-53 297q-17 85 -20 109t-3 61q0 57 25.5 86.5t72.5 29.5q48 0 74.5 -30.5t26.5 -85.5q0 -32 -6 -72l-19 -100l-55 -295h-43zM578 803l-54 293l-20 102q-4 32 -4 53q0 71 24 103t78 32q47 0 72.5 -30t25.5 -86q0 -39 -4 -72q-11 -88 -14 -102l-57 -293h-47z" />
    <glyph glyph-name="numbersign" unicode="#" horiz-adv-x="1368" 
d="M90 973h326l86 403h121l-86 -403h421l84 403h123l-86 -403h199v-123h-223l-76 -371h299v-123h-324l-84 -401h-122l86 401h-424l-84 -401h-123l84 401h-197v123h223l78 371h-301v123zM512 850l-78 -369h424l76 369h-422z" />
    <glyph glyph-name="dollar" unicode="$" 
d="M410 33v588q-90 36 -135 66.5t-82 78.5q-64 82 -64 188q0 244 281 320v98h43v-94q33 4 69 4q41 0 70 -2v92h45v-96q130 -19 207.5 -87t77.5 -163q0 -47 -29 -80t-72 -33q-38 0 -64 29.5t-26 73.5q0 67 57 92q22 9 27.5 13.5t5.5 11.5q0 12 -22.5 31t-57.5 36
q-45 20 -104 27v-492q97 -42 146.5 -79.5t88.5 -96.5q62 -95 62 -201q0 -129 -80 -226t-217 -134v-215h-45v203q-35 -7 -49 -9q-12 -2 -33 -2q-32 0 -57 2v-194h-43v199q-100 18 -162.5 53.5t-106.5 101.5q-22 30 -35.5 70.5t-13.5 71.5q0 56 32.5 94.5t78.5 38.5
q41 0 71.5 -31t30.5 -74t-27 -72.5t-67 -29.5q-8 0 -12 2l-8 2l-6 1.5t-3 0.5q-4 0 -8 -5t-4 -11q0 -47 73 -96t167 -66zM410 829v390q-174 -56 -174 -197q0 -121 174 -193zM453 1229v-420q38 -16 139 -53v475q-31 2 -72 2q-1 0 -67 -4zM592 37v500q-3 1 -139 59v-565
q23 -2 53 -2q29 0 86 8zM637 518v-467q192 66 192 232q0 78 -45.5 134.5t-146.5 100.5z" />
    <glyph glyph-name="percent" unicode="%" horiz-adv-x="1898" 
d="M150 1004q0 154 77.5 259t192.5 105q107 0 185.5 -101.5t78.5 -238.5q0 -155 -76.5 -257.5t-193.5 -102.5q-109 0 -186.5 99t-77.5 237zM504 795l8 241q2 18 2 54q0 132 -21.5 188.5t-72.5 56.5q-56 0 -79.5 -62t-23.5 -212q0 -213 21 -288t80 -75q32 0 57.5 29t28.5 68z
M1221 276q0 154 77.5 257.5t192.5 103.5q110 0 188 -102t78 -248q0 -145 -79 -247.5t-191 -102.5q-107 0 -186.5 101t-79.5 238zM1393 276q0 -185 19.5 -248t76.5 -63q40 0 60.5 28.5t29 94.5t8.5 195q0 137 -7.5 202.5t-27 92t-59.5 26.5q-42 0 -63 -27.5t-29 -94.5
t-8 -206zM1493 1368l-987 -1431h-90l985 1431h92z" />
    <glyph glyph-name="ampersand" unicode="&#x26;" horiz-adv-x="1449" 
d="M1384 0h-401q-50 70 -78 106q-71 -51 -111.5 -73t-97.5 -39q-83 -25 -190 -25q-186 0 -309 105.5t-123 265.5q0 156 104 271.5t297 174.5q-67 121 -91 181.5t-24 113.5q0 117 96.5 196t241.5 79q138 0 234 -69t96 -169q0 -119 -110 -190q-45 -29 -77 -44t-118 -48
q10 -16 22 -38.5t13 -23.5q6 -9 20 -31t41.5 -66.5t52.5 -84.5l140 -223l32 -52q51 75 73.5 121.5t39.5 112.5q16 60 22.5 98t16.5 135h-195v52h396v-52h-154q-7 -97 -14.5 -142.5t-26.5 -113.5q-20 -75 -46 -125t-83 -127l49 -69q48 -69 113 -156h149v-51zM698 877
q92 40 124 88.5t32 148.5q0 191 -160 191q-62 0 -101.5 -32.5t-39.5 -84.5q0 -49 32.5 -118t112.5 -193zM879 147l-39 58q-44 63 -162 250q-97 150 -139 223q-2 4 -16 26t-23 39q-114 -46 -162.5 -97.5t-48.5 -125.5q0 -82 43.5 -186.5t113.5 -188.5q40 -47 93 -73.5
t108 -26.5q107 0 232 102z" />
    <glyph glyph-name="quotesingle" unicode="'" horiz-adv-x="368" 
d="M162 803l-56 297l-18 100q-4 32 -4 53q0 69 23.5 101t74.5 32q48 0 75.5 -30.5t27.5 -85.5q0 -30 -9 -70l-18 -102l-53 -295h-43z" />
    <glyph glyph-name="parenleft" unicode="(" horiz-adv-x="661" 
d="M573 -506h-53q-80 87 -119 136t-84 122q-89 150 -140.5 330.5t-51.5 347.5q0 165 48.5 341t133.5 323q51 88 91.5 137.5t121.5 124.5h53q-66 -90 -97.5 -143t-65.5 -132q-113 -266 -113 -643q0 -364 111 -653q37 -95 68.5 -150.5t96.5 -140.5z" />
    <glyph glyph-name="parenright" unicode=")" horiz-adv-x="661" 
d="M88 1356h53q83 -90 120.5 -138t80.5 -120q90 -147 141.5 -328.5t51.5 -349.5q0 -165 -48 -341.5t-133 -322.5q-51 -88 -91.5 -137.5t-121.5 -124.5h-53q68 92 99.5 145t64.5 132q110 259 110 643q0 376 -110 651q-35 94 -66 148.5t-98 142.5z" />
    <glyph glyph-name="asterisk" unicode="*" 
d="M723 1040l-70 -6q-42 -3 -71 -14t-29 -23q0 -17 18 -22.5t88 -11.5q83 -7 122.5 -33.5t39.5 -73.5q0 -30 -21 -52t-50 -22q-38 0 -67 21.5t-69 79.5q-51 75 -82 75q-16 0 -16 -20q0 -26 29 -90q35 -71 35 -117q0 -37 -23 -63.5t-57 -26.5q-32 0 -55 25.5t-23 60.5
q0 23 6.5 44.5t30.5 78.5q26 64 26 86q0 18 -14 18q-26 0 -78 -75q-70 -97 -135 -97q-32 0 -55 21.5t-23 52.5q0 44 40.5 71.5t115.5 33.5q71 6 92 12.5t21 23.5t-24.5 25t-90.5 14q-158 15 -158 107q2 31 25 53.5t55 22.5q35 0 64.5 -22.5t68.5 -76.5q31 -46 49.5 -64
t32.5 -18q12 0 12 15q0 35 -30 98q-33 65 -33 106q0 38 24 66.5t56 28.5q35 0 58.5 -25.5t23.5 -62.5q0 -41 -35 -115q-33 -65 -33 -92q0 -23 16 -23t33.5 17t52.5 69q67 90 129 90q34 0 57 -21.5t23 -53.5q0 -34 -31 -63t-71 -32z" />
    <glyph glyph-name="plus" unicode="+" horiz-adv-x="1366" 
d="M137 727h477v479h131v-479h482v-131h-482v-475h-131v475h-477v131z" />
    <glyph glyph-name="comma" unicode="," horiz-adv-x="555" 
d="M244 -326l-31 33q98 89 139 154t41 131q0 39 -11 64.5t-28 25.5q-12 0 -16.5 -6.5t-13.5 -36.5q-9 -29 -37 -48.5t-62 -19.5q-46 0 -77 33t-31 82q0 57 42 94t105 37q79 0 133 -58.5t54 -144.5q0 -48 -18.5 -102.5t-49.5 -93.5q-30 -40 -51 -62.5t-88 -81.5z" />
    <glyph glyph-name="hyphen" unicode="-" horiz-adv-x="661" 
d="M117 508h428v-166h-428v166z" />
    <glyph glyph-name="period" unicode="." horiz-adv-x="555" 
d="M297 227q54 0 91.5 -36.5t37.5 -88.5t-37 -89.5t-90 -37.5q-52 0 -88.5 37t-36.5 90q0 52 36 88.5t87 36.5z" />
    <glyph glyph-name="slash" unicode="/" horiz-adv-x="575" 
d="M573 1423l-489 -1452h-82l492 1452h79z" />
    <glyph glyph-name="zero" unicode="0" 
d="M86 623q0 184 58 344.5t156 255t210 94.5q104 0 200.5 -93.5t155 -248t58.5 -322.5q0 -179 -57.5 -337t-155 -251.5t-207.5 -93.5q-108 0 -205 90.5t-155 241.5t-58 320zM301 819v-389q0 -150 20.5 -232.5t69.5 -129.5q48 -48 111 -48q110 0 158.5 111t48.5 365v344
q0 220 -49 325t-152 105q-107 0 -157 -108.5t-50 -342.5z" />
    <glyph glyph-name="one" unicode="1" 
d="M631 1317v-1266h231v-51h-651v51h231v1174h-231v51h35q217 0 385 41z" />
    <glyph glyph-name="two" unicode="2" 
d="M885 371l-33 -371h-750v119q5 6 13 14.5t10 11.5q11 12 106 111q83 83 107 104l100 95q121 112 176.5 224.5t55.5 244.5q0 149 -64 234t-176 85q-95 0 -164 -61t-69 -146q0 -39 18 -39q5 0 16 7q34 22 64 22q38 0 66 -30.5t28 -71.5q0 -43 -30.5 -73t-73.5 -30
q-61 0 -102.5 53.5t-41.5 133.5q0 132 103 220.5t256 88.5q164 0 271.5 -88t107.5 -223q0 -95 -45 -184t-146 -193q-87 -93 -186 -185l-168 -155q-56 -53 -119 -123h455h45q69 2 85.5 15t22.5 71l4 33l7 86h51z" />
    <glyph glyph-name="three" unicode="3" 
d="M336 721l51 -6q6 -2 16 -2q40 0 84.5 20.5t75.5 52.5q35 38 48.5 86t13.5 134q0 145 -37 203.5t-131 58.5q-76 0 -135 -35q-41 -26 -41 -49q0 -8 5.5 -13.5t24.5 -15.5q22 -9 35.5 -31t13.5 -47q0 -37 -28 -64.5t-66 -27.5q-40 0 -67 33t-27 80q0 88 89 153.5t208 65.5
q166 0 269.5 -84t103.5 -219q0 -83 -53 -156t-144 -117q-53 -25 -127 -41v-4q118 -12 180 -35.5t113 -74.5q94 -97 94 -242q0 -99 -61 -185t-164 -137t-221 -51q-137 0 -234.5 72.5t-97.5 173.5q0 53 29 88t73 35q40 0 68.5 -30.5t28.5 -73.5q0 -31 -14.5 -57t-39.5 -38
l-26 -12q-10 -3 -10 -12q0 -15 38 -41q81 -51 166 -51q120 0 182 74.5t62 219.5q0 202 -84 277q-38 32 -94.5 51t-114.5 19q-26 0 -51 -4q-6 0 -17 -1.5t-14 -1.5q-45 0 -45 33q0 14 11 22.5t30 8.5q7 0 17 -1t14 -1z" />
    <glyph glyph-name="four" unicode="4" 
d="M715 1317v-909h168v147h49v-358h-49v163h-168v-309h149v-51h-512v51h170v309h-471v48l27 51q157 293 352 596q64 100 98 146.5t93 115.5h94zM522 408v692h-4q-77 -120 -127 -203q-165 -271 -256 -442l-26 -47h413z" />
    <glyph glyph-name="five" unicode="5" 
d="M252 1116l-19 -375q112 33 199 33q198 0 324.5 -108.5t126.5 -278.5q0 -174 -134 -295t-327 -121q-140 0 -230 73t-90 187q0 47 30 78t75 31q41 0 68.5 -27.5t27.5 -70.5q0 -32 -15 -59t-38 -36l-27 -10q-10 -7 -10 -16q0 -15 18.5 -35t47.5 -33q53 -24 122 -24
q126 0 193.5 83t67.5 240q0 106 -18 169t-62 112q-77 86 -199 86q-82 0 -150 -35q-18 -12 -32 -12q-21 0 -21 30q0 1 1 4.5t1 4.5l19 405q0 14 1 34t1 24q1 64 27 90t89 28h58h215q72 0 89 1t30 7q26 10 37 56h43q-3 -83 -12 -127.5t-31 -69.5q-21 -25 -57 -34t-103 -9h-336
z" />
    <glyph glyph-name="six" unicode="6" 
d="M834 1356v-62q-222 -25 -352.5 -163t-153.5 -373l4 -4q59 62 106.5 84t120.5 22q97 0 182 -58t136 -156.5t51 -209.5q0 -187 -122 -326t-286 -139q-184 0 -303 160.5t-119 407.5q0 212 95 392t263.5 292.5t377.5 132.5zM317 666q-4 -88 -4 -177q0 -190 13 -277t47 -124
q25 -29 64.5 -46t82.5 -17q61 0 106 37t64 102q23 75 23 239q0 149 -6.5 214t-26.5 106q-43 88 -145 88q-61 0 -111 -33.5t-107 -111.5z" />
    <glyph glyph-name="seven" unicode="7" 
d="M211 1294h700l-120 -293l-31 -79q-90 -220 -117.5 -297.5t-44.5 -165.5q-12 -53 -12 -97t14 -102q1 -3 4.5 -14t10 -31t12.5 -41q16 -53 16 -90q0 -47 -31 -80t-77 -33q-56 0 -90.5 45t-34.5 117q0 79 36 164l21 45l33 82l282 684h-477q-66 0 -84 -12t-35 -68l-10 -39
l-16 -61h-51z" />
    <glyph glyph-name="eight" unicode="8" 
d="M600 670v2v-4q90 -19 150 -52.5t106 -89.5q70 -84 70 -202q0 -151 -120.5 -252t-301.5 -101q-183 0 -301.5 99.5t-118.5 253.5q0 179 162 280q43 28 79 41t101 23v4q-166 29 -246 139q-61 76 -61 180q0 137 112 231.5t273 94.5q166 0 278.5 -94.5t112.5 -233.5
q0 -75 -42.5 -146t-111.5 -116q-51 -33 -141 -57zM688 1004q0 140 -43 203t-141 63t-139 -64t-41 -215q0 -157 41.5 -227t136.5 -70q99 0 145 72q23 40 32 91t9 147zM713 322q0 315 -209 315q-106 0 -156.5 -76.5t-50.5 -236.5q0 -106 13 -162.5t44 -89.5q49 -52 146 -52
q117 0 165 68t48 234z" />
    <glyph glyph-name="nine" unicode="9" 
d="M180 -70v41q328 58 443 324q25 62 37.5 108t27.5 136l-4 4q-57 -58 -107.5 -82.5t-113.5 -24.5q-152 0 -264.5 128.5t-112.5 303.5q0 121 54 224.5t147 164t202 60.5q191 0 311 -156t120 -403q0 -314 -215 -551q-98 -107 -221 -177.5t-248 -92.5q-29 -5 -56 -7zM696 625
l2 61q7 201 7 236q0 188 -48.5 271t-158.5 83q-77 0 -125 -49.5t-58 -141.5q-10 -120 -10 -233q0 -147 11 -209t44 -100q48 -51 113 -51q61 0 114 32t109 101z" />
    <glyph glyph-name="colon" unicode=":" horiz-adv-x="555" 
d="M297 227q54 0 91.5 -36.5t37.5 -88.5t-37 -89.5t-90 -37.5q-52 0 -88.5 37t-36.5 90q0 52 36 88.5t87 36.5zM299 811q54 0 91.5 -37t37.5 -90q0 -54 -37 -90.5t-90 -36.5t-90 36.5t-37 90.5q0 53 36.5 90t88.5 37z" />
    <glyph glyph-name="semicolon" unicode=";" horiz-adv-x="555" 
d="M246 -326l-33 33q98 86 139 153t41 142q0 34 -12 57t-29 23t-28 -43q-21 -68 -95 -68q-50 0 -81 32t-31 83q0 56 41 93.5t104 37.5q82 0 135.5 -60.5t53.5 -152.5q0 -82 -53.5 -167.5t-151.5 -162.5zM270 811q54 0 92.5 -37.5t38.5 -91.5q0 -52 -37.5 -88.5t-91.5 -36.5
q-53 0 -90 36.5t-37 88.5q0 54 37 91.5t88 37.5z" />
    <glyph glyph-name="less" unicode="&#x3c;" horiz-adv-x="1366" 
d="M1225 147l-1084 457v119l1084 457v-144l-908 -372l908 -375v-142z" />
    <glyph glyph-name="equal" unicode="=" horiz-adv-x="1366" 
d="M139 967h1088v-133h-1088v133zM139 498h1088v-131h-1088v131z" />
    <glyph glyph-name="greater" unicode="&#x3e;" horiz-adv-x="1366" 
d="M139 1180l1086 -459v-117l-1086 -457v142l910 373l-910 374v144z" />
    <glyph glyph-name="question" unicode="?" horiz-adv-x="897" 
d="M428 385h-43q-16 84 -16 125q0 231 149 348l113 90q88 72 88 164q0 82 -71.5 139.5t-172.5 57.5q-90 0 -151 -43q-31 -22 -51.5 -48t-20.5 -44q0 -15 22 -15q49 -3 79 -30.5t30 -69.5q0 -40 -29.5 -68t-70.5 -28q-51 0 -81 35.5t-30 95.5q0 109 89 185.5t216 76.5
q152 0 249 -104t97 -267q0 -103 -56.5 -181t-205.5 -181q-137 -94 -137 -183q0 -19 4 -55zM426 227q54 0 92.5 -36.5t38.5 -88.5t-37.5 -89.5t-89.5 -37.5t-88.5 37t-36.5 90t35 89t86 36z" />
    <glyph glyph-name="at" unicode="@" horiz-adv-x="1886" 
d="M1413 958l-117 -399l-61 -215q-27 -105 -33 -160v-4q0 -34 22 -56t56 -22q55 0 126 42t122 104q80 99 127 233.5t47 268.5q0 177 -81 318.5t-226 221.5t-326 80q-232 0 -416 -104t-307 -305q-149 -249 -149 -547q0 -171 58 -319t160 -252.5t246 -164t312 -59.5
q277 0 486 143t323 410h57q-89 -278 -325 -446t-537 -168q-249 0 -449.5 114t-314 315.5t-113.5 452.5q0 206 73.5 388t201 312.5t305.5 206.5t379 76q205 0 365 -87t248.5 -243.5t88.5 -357.5q0 -187 -74 -349.5t-199 -258.5t-269 -96q-84 0 -123 34.5t-39 108.5
q0 47 18 137l-4 4q-58 -73 -86 -104t-74 -72q-57 -51 -117 -79.5t-110 -28.5q-82 0 -133 67t-51 174q0 120 71 269t181 262q77 77 155.5 119.5t145.5 42.5q68 0 111.5 -35.5t56.5 -104.5h4l30 111zM1061 918q-70 0 -148 -76.5t-149 -214.5q-47 -91 -77 -181.5t-30 -142.5
q0 -67 33 -109t86 -42q39 0 85.5 24t88.5 66q43 42 85.5 98t64.5 100q33 62 69 205q17 80 17 119q0 70 -34 112t-91 42z" />
    <glyph glyph-name="A" unicode="A" horiz-adv-x="1449" 
d="M858 418h-426l-135 -367h246v-51h-486v51h185l491 1321h29l469 -1321h180v-51h-639v51h217zM840 469l-189 537h-4l-196 -537h389z" />
    <glyph glyph-name="B" unicode="B" horiz-adv-x="1429" 
d="M309 51v1239h-211v51h693q110 0 164 -7t110 -29q93 -37 148 -115t55 -172q0 -238 -367 -313v-5q220 -34 320 -131q43 -41 68.5 -96.5t25.5 -107.5q0 -117 -74 -208.5t-199 -129.5q-48 -17 -99.5 -22t-160.5 -5h-684v51h211zM543 1290v-561h184q100 0 150 15t81 55
q33 40 46.5 90.5t13.5 134.5q0 97 -17.5 148.5t-60.5 82.5q-28 20 -57.5 27.5t-87.5 7.5h-47h-205zM543 676v-625h188q124 0 174.5 15.5t85.5 66.5q58 86 58 227q0 178 -70.5 247t-253.5 69h-182z" />
    <glyph glyph-name="C" unicode="C" horiz-adv-x="1216" 
d="M1085 1356v-398h-45q-34 182 -128.5 275.5t-243.5 93.5q-89 0 -156 -50.5t-92 -135.5q-23 -76 -32 -182t-9 -297q0 -202 10.5 -307t38.5 -171q23 -56 64 -94q34 -31 87.5 -50.5t106.5 -19.5q135 0 236.5 99t152.5 282h47l-16 -409h-41q-17 41 -29 59t-43 49
q-162 -131 -315 -131q-115 0 -221 55t-183 148t-122.5 221.5t-45.5 268.5q0 142 45.5 273t121.5 226.5t179.5 153t215.5 57.5q95 0 170 -29.5t145 -95.5q37 60 57 109h45z" />
    <glyph glyph-name="D" unicode="D" horiz-adv-x="1556" 
d="M303 51v1239h-211v51h633q129 0 209.5 -13.5t152.5 -47.5q157 -75 252 -243.5t95 -372.5q0 -257 -157 -442.5t-400 -213.5q-63 -8 -156 -8h-629v51h211zM539 51h174q100 0 155.5 8t98.5 29q67 32 116 103.5t66 162.5q25 150 25 320q0 259 -44 390t-149 185
q-77 41 -201 41h-63h-178v-1239z" />
    <glyph glyph-name="E" unicode="E" horiz-adv-x="1429" 
d="M561 1290v-575h123q123 0 172 54.5t55 197.5h54v-568h-54q-6 106 -30 161t-76 83q-29 14 -47.5 17.5t-75.5 3.5h-121v-613h273q217 0 312.5 89t115.5 309h51l-13 -449h-1189v51h211v1239h-211v51h1140l23 -358h-51q-29 172 -112 239.5t-265 67.5h-285z" />
    <glyph glyph-name="F" unicode="F" horiz-adv-x="1323" 
d="M324 51v1239h-211v51h1132l17 -405h-45q-7 35 -9 43q-22 106 -44 155t-66 89q-40 37 -92 53q-31 10 -54 12t-100 2h-295v-581h55h39q120 0 174.5 57.5t63.5 194.5h49v-568h-49q-6 98 -25.5 151.5t-60.5 84.5q-26 20 -57 26.5t-97 6.5h-37h-55v-611h240v-51h-684v51h211z
" />
    <glyph glyph-name="G" unicode="G" horiz-adv-x="1449" 
d="M946 449h-227v49h694v-49h-194q0 -89 -11 -137.5t-41 -102.5q-66 -114 -194 -177t-291 -63q-117 0 -225 57t-187 153t-126.5 227.5t-47.5 273.5q0 188 83.5 347.5t227.5 252t314 92.5q75 0 136.5 -18.5t127.5 -61.5q40 -24 53 -24q18 0 31.5 12t32.5 45h45l14 -364h-49
q-47 190 -143 275t-262 85q-97 0 -173 -40t-108 -107q-31 -66 -41 -152.5t-10 -280.5q0 -141 6 -311q3 -142 37 -235q29 -80 102 -127.5t168 -47.5q91 0 155.5 36t84.5 98q18 58 18 159v64v72z" />
    <glyph glyph-name="H" unicode="H" horiz-adv-x="1665" 
d="M324 51v1239h-211v51h663v-51h-211v-573h578v573h-211v51h659v-51h-211v-1239h211v-51h-659v51h211v617h-578v-617h211v-51h-663v51h211z" />
    <glyph glyph-name="I" unicode="I" horiz-adv-x="874" 
d="M346 51v1239h-223v51h672v-51h-220v-1239h220v-51h-672v51h223z" />
    <glyph glyph-name="J" unicode="J" horiz-adv-x="1110" 
d="M348 1341h664v-51h-199v-944q0 -130 -5.5 -172t-29.5 -98q-30 -76 -102 -142q-124 -112 -289 -112q-123 0 -215 64.5t-92 150.5q0 49 33.5 83t81.5 34q46 0 76 -29.5t30 -73.5q0 -35 -16 -59l-19 -25q-8 -11 -8 -22q0 -31 45 -51q51 -21 86 -21q108 0 150 70
q26 41 32.5 85t6.5 175v1087h-230v51z" />
    <glyph glyph-name="K" unicode="K" horiz-adv-x="1622" 
d="M360 51v1239h-210v51h659v-51h-211v-1239h211v-51h-659v51h210zM952 1341h506v-51h-205l-444 -456l649 -783h131v-51h-659v51h231l-543 662l562 577h-228v51z" />
    <glyph glyph-name="L" unicode="L" horiz-adv-x="1323" 
d="M547 1290v-1239h303q128 0 190 35t105 131q38 74 59 174q2 5 6 21.5t7 25.5h47l-37 -438h-1127v51h211v1239h-211v51h672v-51h-225z" />
    <glyph glyph-name="M" unicode="M" horiz-adv-x="1726" 
d="M90 1341h481l285 -948h4l291 948h469v-51h-199v-1239h199v-51h-631v51h203v1262h-4l-397 -1313h-46l-401 1313h-4v-1262h205v-51h-455v51h199v1239h-199v51z" />
    <glyph glyph-name="N" unicode="N" horiz-adv-x="1556" 
d="M1280 1290v-1321h-41l-881 1327h-4v-1245h228v-51h-478v51h199v1239h-215v51h512l625 -940h4v889h-221v51h477v-51h-205z" />
    <glyph glyph-name="O" unicode="O" horiz-adv-x="1449" 
d="M104 694q9 186 98 342t234 246t312 90q151 0 291 -99.5t225.5 -262.5t85.5 -338q0 -184 -86 -347t-230.5 -260.5t-308.5 -97.5q-121 0 -235.5 57.5t-199 152.5t-135.5 224.5t-51 266.5v26zM387 688q0 -260 17.5 -376t66.5 -179q41 -54 107 -83.5t145 -29.5q129 0 212 66
t105 186q27 135 27 455q0 230 -19 336t-71 164q-40 44 -105.5 69t-140.5 25q-117 0 -198 -51.5t-107 -143.5q-39 -130 -39 -438z" />
    <glyph glyph-name="P" unicode="P" horiz-adv-x="1343" 
d="M553 614v-563h215v-51h-668v51h213v1239h-213v51h691q220 0 345.5 -96.5t125.5 -263.5q0 -177 -133.5 -272t-383.5 -95h-192zM553 666h129q79 0 115.5 4.5t68.5 19.5q75 32 110.5 108t35.5 206q0 95 -29.5 163t-83.5 97q-50 26 -115 26h-57h-174v-624z" />
    <glyph glyph-name="Q" unicode="Q" horiz-adv-x="1449" 
d="M1227 -375v-49q-16 -2 -39 -2q-39 -2 -62 -2q-135 0 -266.5 46t-195.5 116q-93 101 -93 250v16q-207 66 -337 257.5t-130 430.5q0 132 52 258t137 219.5t200.5 150t235.5 56.5q159 0 303 -96t231 -253.5t87 -330.5q0 -161 -66.5 -311t-181 -252t-250.5 -129
q0 -138 27 -215q28 -82 100 -119.5t207 -38.5zM387 680q0 -5 -1 -15.5t-1 -15.5q0 -173 7 -257t26 -161q21 -85 88 -143q37 -32 96 -51t125 -19q118 0 199.5 58t107.5 160q37 148 37 479q0 257 -24.5 364.5t-96.5 167.5q-39 32 -98.5 52t-120.5 20q-115 0 -199 -54
t-110 -145q-20 -68 -27.5 -158t-7.5 -282z" />
    <glyph glyph-name="R" unicode="R" horiz-adv-x="1556" 
d="M348 51v1239h-211v51h733h66q108 0 203 -36q87 -34 140.5 -109.5t53.5 -165.5q0 -75 -41.5 -141t-113.5 -103q-59 -30 -106 -43.5t-169 -35.5v-5q97 -21 146 -41t98 -61q74 -59 106.5 -134.5t32.5 -189.5v-20q0 -122 24 -164.5t91 -42.5q26 0 86 14v-49q-91 -30 -158 -30
q-112 0 -176.5 32.5t-99.5 106.5q-33 67 -33 162l2 106q0 201 -125 264q-68 33 -131 33h-55h-127v-637h211v-51h-658v51h211zM584 735h182q101 0 164 13q75 20 110 85t35 183q0 212 -102 254q-49 20 -162 20h-227v-555z" />
    <glyph glyph-name="S" unicode="S" horiz-adv-x="1110" 
d="M920 1356l8 -348h-47q-32 94 -61.5 144.5t-76.5 92.5q-89 80 -217 80q-123 0 -208 -68.5t-85 -169.5q0 -98 89 -153q39 -24 86.5 -38.5t146.5 -31.5q98 -18 148 -32.5t94 -38.5q56 -29 102 -78q107 -116 107 -287q0 -195 -127.5 -327t-313.5 -132q-88 0 -154.5 24.5
t-160.5 90.5l-94 -84h-35v375h43q31 -92 64 -148.5t85 -105.5q115 -103 248 -103q135 0 234.5 87.5t99.5 205.5q0 104 -73 177.5t-199 95.5l-152 26q-63 11 -130 43.5t-110 73.5q-104 101 -104 266q0 68 32 143t83 126q107 110 290 110q80 0 144.5 -22t140.5 -76
q36 36 64 82h39z" />
    <glyph glyph-name="T" unicode="T" horiz-adv-x="1323" 
d="M90 1341h1145l33 -456h-51q-22 127 -52.5 201.5t-83.5 130.5q-38 40 -82 56.5t-110 16.5h-109v-1239h240v-51h-717v51h242v1239h-94q-69 0 -108.5 -11t-74.5 -40q-66 -59 -104 -141.5t-58 -212.5h-51z" />
    <glyph glyph-name="U" unicode="U" horiz-adv-x="1556" 
d="M1225 1290h-219v51h481v-51h-211v-811q0 -205 -42.5 -300.5t-158.5 -149.5q-126 -60 -291 -60q-215 0 -329 74.5t-133 228.5q-11 94 -11 207v811h-194v51h641v-51h-211v-786q0 -140 7.5 -210.5t27.5 -115.5q67 -149 262 -149q146 0 243.5 61.5t120.5 167.5q14 80 17 195
v49v788z" />
    <glyph glyph-name="V" unicode="V" horiz-adv-x="1449" 
d="M51 1341h641v-51h-211l346 -946h4l322 946h-217v51h475v-51h-203l-452 -1321h-27l-498 1321h-180v51z" />
    <glyph glyph-name="W" unicode="W" horiz-adv-x="1984" 
d="M1135 891l241 -590l369 989h-195v51h389v-51h-137l-495 -1321h-35l-256 621l-250 -621h-39l-537 1321h-149v51h1399v-51h-144zM1108 961l133 329h-268zM987 659l-258 631h-297l408 -1001z" />
    <glyph glyph-name="X" unicode="X" horiz-adv-x="1665" 
d="M918 764l520 -713h168v-51h-674v51h229l-387 531l-418 -531h262v-51h-530v51h203l450 574l-483 665h-170v51h668v-51h-221l350 -479l381 479h-230v51h486v-51h-189z" />
    <glyph glyph-name="Y" unicode="Y" horiz-adv-x="1556" 
d="M61 1341h670v-51h-219l393 -592l387 592h-243v51h475v-51h-172l-422 -641v-598h223v-51h-690v51h229v563l-450 676h-181v51z" />
    <glyph glyph-name="Z" unicode="Z" horiz-adv-x="1216" 
d="M1098 0h-1028v51l770 1239h-316q-117 0 -182 -30t-102 -101q-22 -40 -31.5 -70.5t-24.5 -107.5h-49l23 360h962v-36l-782 -1254h328q157 0 220 31t118 137q31 58 43.5 101t23.5 120h49z" />
    <glyph glyph-name="bracketleft" unicode="[" horiz-adv-x="681" 
d="M193 -494v1840h434v-52h-281v-1738h281v-50h-434z" />
    <glyph glyph-name="backslash" unicode="\" horiz-adv-x="575" 
d="M82 1423l491 -1452h-79l-490 1452h78z" />
    <glyph glyph-name="bracketright" unicode="]" horiz-adv-x="681" 
d="M492 1346v-1840h-435v52h279v1736h-279v52h435z" />
    <glyph glyph-name="asciicircum" unicode="^" horiz-adv-x="960" 
d="M498 1384l426 -716h-93l-350 585l-350 -585h-94l432 716h29z" />
    <glyph glyph-name="underscore" unicode="_" horiz-adv-x="1024" 
d="M1040 -442h-1056v84h1056v-84z" />
    <glyph glyph-name="grave" unicode="`" horiz-adv-x="681" 
d="M326 1202l129 -264h-103l-225 264h199z" />
    <glyph glyph-name="a" unicode="a" 
d="M606 449v102q0 48 -1.5 78t-7 55t-13.5 37.5t-24 21t-35 11t-50 2.5q-72 0 -117 -17.5t-45 -46.5q0 -11 9 -26q18 -37 18 -64q0 -37 -25 -60.5t-63 -23.5q-40 0 -66 26t-26 66q0 86 99 137.5t265 51.5q240 0 271 -123q8 -29 8 -115v-368q0 -74 8.5 -97.5t34.5 -23.5
q40 0 72 49h24q-12 -71 -56 -108.5t-114 -37.5q-136 0 -166 160q-64 -85 -128 -122.5t-144 -37.5q-98 0 -164 53.5t-66 133.5q0 97 69.5 163.5t201.5 94.5q101 22 231 29zM606 295v106q-170 -6 -236.5 -48.5t-66.5 -145.5q0 -63 33 -102t86 -39q83 0 133.5 62.5t50.5 166.5z
" />
    <glyph glyph-name="b" unicode="b" horiz-adv-x="1110" 
d="M393 1356v-703h4q46 83 105.5 120.5t144.5 37.5q146 0 254.5 -124t108.5 -290q0 -167 -108 -294.5t-249 -127.5q-170 0 -256 183h-4v-170q-55 8 -82 10q-31 2 -104 2h-146v51h138v1239h-138v51h138q104 0 194 15zM784 391q0 174 -2 219q0 59 -22 95q-15 26 -50 43.5
t-73 17.5q-45 0 -90.5 -21.5t-79.5 -58.5q-44 -49 -59 -111t-15 -190q0 -89 13.5 -141.5t50.5 -106.5q76 -110 186 -110q36 0 67 16t44 43q21 40 25.5 89t4.5 216z" />
    <glyph glyph-name="c" unicode="c" horiz-adv-x="874" 
d="M776 272h43q-29 -142 -115.5 -219.5t-216.5 -77.5q-161 0 -281 121.5t-120 284.5q0 181 121.5 305.5t296.5 124.5q120 0 203.5 -61t83.5 -148q0 -44 -29 -74t-70 -30q-43 0 -71.5 27.5t-28.5 70.5q0 28 20 55l21 27q8 8 8 20q0 29 -38 49.5t-93 20.5q-114 0 -156 -57
q-31 -38 -41 -96t-10 -191q0 -154 10 -227t35 -107q48 -67 150 -67q68 0 128 34.5t97 94.5q28 44 53 120z" />
    <glyph glyph-name="d" unicode="d" horiz-adv-x="1087" 
d="M903 1356v-1305h135v-51h-112q-104 0 -224 -12v164h-4q-89 -177 -254 -177q-142 0 -250 123.5t-108 286.5q0 112 52 210.5t140 157t189 58.5q78 0 132.5 -33t98.5 -108h4v620h-182v51h182q102 0 201 15zM309 391v-31q0 -139 10.5 -203.5t38.5 -93.5q33 -36 101 -36
q71 0 131.5 44t89.5 119q18 43 23.5 80t5.5 109v12q-2 70 -2 127q-3 74 -43 141q-66 107 -191 107q-90 0 -127 -59q-20 -37 -28 -101t-9 -215z" />
    <glyph glyph-name="e" unicode="e" horiz-adv-x="874" 
d="M807 453h-508q-2 -35 -2 -72q0 -133 7.5 -192.5t27.5 -96.5q17 -33 57 -52.5t90 -19.5q61 0 118 27.5t97 75.5q25 30 38.5 57.5t31.5 85.5h43q-28 -136 -115 -213.5t-213 -77.5q-165 0 -283 120t-118 288q0 179 110.5 303.5t270.5 124.5q88 0 160.5 -36.5t119.5 -104.5
q34 -48 48 -91.5t20 -125.5zM297 498h295q8 73 8 108q0 78 -37 119t-108 41q-91 0 -124.5 -46.5t-33.5 -174.5v-47z" />
    <glyph glyph-name="f" unicode="f" horiz-adv-x="661" 
d="M217 51v684h-166v51h166v11q0 253 106 406t283 153q80 -2 136.5 -46.5t56.5 -107.5q0 -44 -28 -74t-69 -30q-35 0 -61.5 25.5t-26.5 60.5q0 32 14.5 53.5t51.5 46.5q-43 31 -82 31q-74 0 -120.5 -44.5t-55.5 -123.5q-8 -55 -8 -193v-168h186v-51h-186v-684h168v-51h-514
v51h149z" />
    <glyph glyph-name="g" unicode="g" 
d="M221 -141l45 26q-91 23 -128.5 66t-37.5 123q0 181 207 211v4q-86 44 -123 96.5t-37 130.5q0 123 97 209t235 86q148 0 242 -100q72 100 158 100q40 0 64 -24t24 -62q0 -32 -20.5 -54t-49.5 -22q-39 0 -61 43q-7 17 -12.5 22t-14.5 5q-25 0 -57 -37q34 -51 46.5 -84.5
t12.5 -71.5q0 -123 -94.5 -204.5t-235.5 -81.5h-18l-119 6q-4 2 -12 2q-67 0 -116.5 -33.5t-49.5 -77.5q0 -43 34 -57t134 -14q39 0 133 4q123 10 176 10q133 0 201.5 -66.5t68.5 -195.5q0 -152 -124.5 -250t-319.5 -98q-167 0 -270 61.5t-103 161.5q0 51 28 88t97 78z
M616 393l5 131q2 12 2 35q0 118 -31 160.5t-117 42.5q-82 0 -112.5 -39.5t-30.5 -144.5q0 -71 1.5 -114t7 -79t13.5 -53t25 -29t37 -15t53 -3q75 0 110.5 25.5t36.5 82.5zM324 -115q-51 -35 -73 -76.5t-22 -101.5q0 -88 65 -138t179 -50q164 0 273.5 73t109.5 183
q0 59 -50.5 93t-137.5 34q-6 0 -16.5 -0.5t-47 -2.5t-86.5 -5q-64 -6 -194 -9z" />
    <glyph glyph-name="h" unicode="h" horiz-adv-x="1130" 
d="M219 51v1239h-158v51h150l70 2q50 0 90 5q1 0 41 8v-746h4q60 103 122.5 146t153.5 43q123 0 191 -74q37 -39 49 -86.5t14 -149.5v-59v-379h129v-51h-452v51h129v398q0 30 -2 53v119q-2 67 -24.5 97t-72.5 30q-69 0 -131.5 -59t-87.5 -148q-22 -76 -22 -185v-88v-217h129
v-51h-465v51h143z" />
    <glyph glyph-name="i" unicode="i" horiz-adv-x="555" 
d="M379 801v-750h131v-51h-465v51h141v684h-141v51h141q102 0 193 15zM289 1294q44 0 75 -32t31 -76q0 -46 -31.5 -77.5t-76.5 -31.5t-77 32t-32 77q0 44 32.5 76t78.5 32z" />
    <glyph glyph-name="j" unicode="j" horiz-adv-x="641" 
d="M444 801v-719v-76q-3 -138 -32 -248q-27 -109 -107 -196q-81 -84 -180 -84q-72 0 -123 38.5t-51 92.5q0 37 26 61.5t64 24.5q33 0 56.5 -20t23.5 -48q0 -18 -12 -39q-15 -27 -15 -39q0 -28 37 -28q32 0 57.5 19.5t36.5 51.5q23 77 23 318v825h-178v51h178q104 0 196 15z
M346 1077q-47 0 -80 31.5t-33 77.5q0 44 32.5 76t76.5 32t76.5 -32t32.5 -76q0 -45 -31 -77t-74 -32z" />
    <glyph glyph-name="k" unicode="k" horiz-adv-x="1087" 
d="M193 51v1239h-142v51h133q102 0 205 15v-1305h131v-51h-467v51h140zM743 51l-331 387l319 297h-168v51h422v-51h-190l-222 -205l412 -479h88v-51h-475v51h145z" />
    <glyph glyph-name="l" unicode="l" horiz-adv-x="555" 
d="M186 51v1239h-145v51h137q106 0 201 15v-1305h141v-51h-479v51h145z" />
    <glyph glyph-name="m" unicode="m" horiz-adv-x="1665" 
d="M213 51v684h-139v51h86q149 0 250 13v-193h4q46 101 114 147t174 46q103 0 165.5 -53t72.5 -152h4q26 62 55 97.5t74 62.5q68 45 160 45q89 0 152.5 -46.5t78.5 -123.5q11 -59 11 -174v-404h139v-51h-465v51h129v494v76q-1 72 -21 100.5t-67 28.5q-63 0 -125 -53
t-90 -128q-33 -94 -33 -190v-68v-260h129v-51h-455v51h132v387l-3 88q-1 101 -8 145.5t-25 61.5t-59 17q-60 0 -114.5 -42t-89.5 -116q-23 -49 -30 -90.5t-9 -126.5v-72v-252h129v-51h-465v51h139z" />
    <glyph glyph-name="n" unicode="n" horiz-adv-x="1110" 
d="M205 51v684h-144v51h91q134 0 245 15v-195h4q39 77 81.5 119t103.5 66q47 20 104 20q83 0 144 -43t81 -117q12 -41 15.5 -74t3.5 -106v-420h156v-51h-484v51h131v500q0 123 -18 163t-72 40q-71 0 -135.5 -60.5t-95.5 -156.5q-12 -36 -15.5 -62.5t-3.5 -87.5v-336h131v-51
h-467v51h144z" />
    <glyph glyph-name="o" unicode="o" 
d="M506 811q180 0 296 -118t116 -300q0 -170 -123 -294t-293 -124q-169 0 -288.5 122.5t-119.5 297.5t119.5 295.5t292.5 120.5zM506 768q-52 0 -93.5 -21t-60.5 -57q-25 -48 -28 -117q0 -14 -1 -74t-1 -106q0 -45 1 -104.5t1 -73.5q3 -71 28 -119q20 -35 61 -55.5t93 -20.5
t93 21t60 55q29 53 29 119q2 39 2 178q0 141 -2 180q0 67 -29 117q-19 37 -59.5 57.5t-93.5 20.5z" />
    <glyph glyph-name="p" unicode="p" horiz-adv-x="1110" 
d="M397 799v-158h4q47 88 106.5 129t137.5 41q157 0 263 -116.5t106 -286.5q0 -108 -53.5 -205.5t-143.5 -156t-190 -58.5q-140 0 -226 143h-4v-598h162v-57h-491v57h129v1202h-142v51h113q89 0 229 13zM791 387l-3 145q-1 132 -34.5 183t-116.5 51q-58 0 -111.5 -36.5
t-85.5 -98.5q-27 -52 -35 -96t-8 -140q0 -110 4.5 -148t24.5 -81q26 -59 86 -96t127 -37q88 0 120 75t32 279z" />
    <glyph glyph-name="q" unicode="q" horiz-adv-x="1110" 
d="M721 -467v604h-4q-50 -78 -107.5 -113.5t-136.5 -35.5q-98 0 -184 58.5t-137.5 157t-51.5 208.5q0 160 109.5 279.5t255.5 119.5q90 0 149 -43t103 -141h4v172q40 -4 108 -8q93 -5 115 -5h117v-51h-143v-1202h133v-57h-492v57h162zM326 401l2 -141q0 -126 33 -175.5
t116 -49.5q69 0 126 35t83 94q21 46 27 87t6 134q0 102 -8 147t-35 95q-34 61 -88 99t-107 38q-85 0 -119 -52t-34 -180z" />
    <glyph glyph-name="r" unicode="r" horiz-adv-x="768" 
d="M203 51v684h-164v51h164q118 0 192 13v-189h4q70 189 207 189q57 0 95 -35.5t38 -89.5q0 -47 -29.5 -77t-76.5 -30q-39 0 -62.5 23.5t-23.5 62.5q0 15 2 23q2 10 2 20q0 11 -8 19q-8 4 -13 4q-52 0 -93.5 -111t-41.5 -250v-307h166v-51h-522v51h164z" />
    <glyph glyph-name="s" unicode="s" horiz-adv-x="768" 
d="M625 795v-224h-41q-25 101 -79 149t-145 48q-74 0 -127 -40t-53 -95q0 -51 43.5 -74.5t165.5 -38.5q299 -35 299 -272q0 -117 -76 -195t-190 -78q-63 0 -110 19.5t-113 73.5l-70 -60h-35v295h35q24 -72 34.5 -97t31.5 -59q35 -58 96.5 -93.5t124.5 -35.5q82 0 143.5 50
t61.5 116q0 61 -46 87t-194 48q-107 17 -158 42t-86 77q-37 58 -37 125q0 109 73.5 178.5t188.5 69.5q58 0 101.5 -17.5t89.5 -58.5q25 32 41 60h31z" />
    <glyph glyph-name="t" unicode="t" horiz-adv-x="768" 
d="M422 1014v-228h237v-51h-237v-495q0 -118 17.5 -153.5t74.5 -35.5q54 0 97 35t63 96h43q-47 -194 -277 -194q-126 0 -169.5 53.5t-43.5 210.5v483h-178v51h178v211h31q48 0 164 17z" />
    <glyph glyph-name="u" unicode="u" horiz-adv-x="1110" 
d="M920 786v-735h135v-51h-135h-70q-70 0 -129 -12v186h-4q-49 -98 -116.5 -142t-164.5 -44q-85 0 -143.5 33t-81.5 94q-15 39 -18 65.5t-3 112.5v442h-145v51h340v-528l2 -76q0 -79 20.5 -111t71.5 -32q38 0 79.5 21.5t72.5 56.5q51 60 70.5 129.5t19.5 187.5v301h-156v51
h355z" />
    <glyph glyph-name="v" unicode="v" horiz-adv-x="1110" 
d="M954 735l-379 -766h-28l-383 766h-121v51h492v-51h-152l262 -532l258 532h-151v51h325v-51h-123z" />
    <glyph glyph-name="w" unicode="w" horiz-adv-x="1449" 
d="M1294 735l-288 -760h-33l-232 545l-219 -545h-33l-319 760h-125v51h467v-51h-137l207 -493l221 544h31l227 -544l184 493h-145v51h315v-51h-121z" />
    <glyph glyph-name="x" unicode="x" horiz-adv-x="1110" 
d="M629 457l342 -406h96v-51h-469v51h131l-225 268l-244 -268h158v-51h-369v51h152l274 301l-319 383h-115v51h487v-51h-131l201 -243l221 243h-153v51h362v-51h-149z" />
    <glyph glyph-name="y" unicode="y" horiz-adv-x="1110" 
d="M371 735l282 -547l244 547h-174v51h354v-51h-133l-405 -913l-27 -55q-73 -158 -115 -213.5t-104 -75.5q-32 -8 -49 -8q-48 0 -79.5 31.5t-31.5 80.5q0 38 24.5 64t61.5 26q46 0 80 -51q13 -23 21.5 -31t19.5 -8q26 0 55.5 46t96.5 194l65 147l-397 766h-117v51h481v-51
h-153z" />
    <glyph glyph-name="z" unicode="z" horiz-adv-x="874" 
d="M117 473v313h671v-43l-483 -700h139q135 0 203 64.5t103 228.5h38v-336h-702v51l481 692h-139q-78 0 -115.5 -11.5t-66.5 -45.5q-67 -79 -88 -213h-41z" />
    <glyph glyph-name="braceleft" unicode="{" horiz-adv-x="983" 
d="M842 -471v-35q-170 23 -272.5 133.5t-102.5 270.5q0 57 20 141q25 109 25 151q0 82 -64 142.5t-165 73.5v40q102 14 165.5 73.5t63.5 142.5q0 42 -25 151q-22 83 -22 156q0 148 106.5 257.5t270.5 131.5v-35q-112 -28 -170 -88.5t-58 -149.5q0 -45 25 -157
q23 -97 23 -152q0 -115 -78.5 -207t-218.5 -139v-4q137 -50 217 -144t80 -206q0 -54 -23 -154q-25 -109 -25 -155q0 -89 58.5 -149.5t169.5 -88.5z" />
    <glyph glyph-name="bar" unicode="|" horiz-adv-x="1079" 
d="M473 1425h133v-1701h-133v1701z" />
    <glyph glyph-name="braceright" unicode="}" horiz-adv-x="983" 
d="M178 1323v35q169 -23 272 -134t103 -270q0 -56 -21 -141q-24 -105 -24 -151q0 -83 63 -142.5t164 -73.5v-40q-101 -13 -164 -73.5t-63 -142.5q0 -46 24 -151q21 -93 21 -158q0 -146 -106 -255.5t-269 -131.5v35q225 57 225 238q0 50 -24 155q-21 91 -21 154
q0 114 78.5 206.5t216.5 139.5v4q-136 47 -215.5 142t-79.5 208q0 64 21 152q24 94 24 157q0 181 -225 238z" />
    <glyph glyph-name="asciitilde" unicode="~" horiz-adv-x="1366" 
d="M1171 815h52q-3 -135 -74.5 -219t-181.5 -84q-61 0 -122 19t-255 100q-88 36 -134 49.5t-83 13.5q-143 0 -178 -180h-52q5 85 22.5 136.5t57.5 92.5q32 34 77 54t89 20q47 0 96 -12t136 -45q29 -12 80 -33.5t73 -30.5q148 -63 213 -63q78 0 126 46.5t58 135.5z" />
    <glyph glyph-name="exclamdown" unicode="&#xa1;" horiz-adv-x="555" 
d="M285 420h51v-64q2 -78 2 -131q3 -85 16 -190q16 -122 47 -262q23 -126 23 -168q0 -58 -34 -95.5t-85 -37.5q-50 0 -82.5 39t-32.5 100q0 64 27 182q36 163 49.5 250.5t16.5 181.5q0 4 1 48t1 85v62zM311 598q-53 0 -90 37t-37 90q0 51 37.5 88t89.5 37q51 0 88 -37.5
t37 -89.5q0 -53 -36 -89t-89 -36z" />
    <glyph glyph-name="cent" unicode="&#xa2;" horiz-adv-x="874" 
d="M809 1124l-127 -354q52 -31 82.5 -76t30.5 -92q0 -44 -29 -74t-70 -30q-67 0 -92 55l-184 -516q38 -14 82 -14q68 0 128 34.5t97 94.5q28 44 53 120h41q-28 -142 -114.5 -219.5t-217.5 -77.5q-34 0 -88 11l-127 -359h-45l133 371q-118 41 -195 150t-77 233
q0 180 121.5 305t294.5 125q69 0 139 -25l121 338h43zM383 57l242 676q-41 35 -111 35q-113 0 -158 -57q-29 -38 -39 -96.5t-10 -190.5q0 -187 15 -259.5t61 -107.5z" />
    <glyph glyph-name="sterling" unicode="&#xa3;" 
d="M76 616h211q-34 97 -47 158.5t-13 124.5q0 178 112 295t282 117q135 0 227 -73.5t92 -182.5q0 -62 -38.5 -106t-92.5 -44q-44 0 -75.5 31.5t-31.5 75.5q0 42 29 71t70 29q18 0 26 -4q18 -6 23 -6q7 0 12.5 7.5t5.5 18.5q0 31 -47 72q-73 64 -180 64q-108 0 -169.5 -66
t-61.5 -182q0 -81 24 -164l55 -178l13 -58h239v-57h-229q2 -29 2 -55q0 -78 -15.5 -138.5t-58.5 -148.5l56 -12q133 -34 239 -37h8q83 0 124.5 39.5t45.5 124.5h50q-3 -163 -81 -260t-206 -97q-66 0 -133.5 31t-161.5 103q-62 -80 -102.5 -107t-98.5 -27q-57 0 -96 36
t-39 87q0 69 53.5 111.5t139.5 42.5q49 0 143 -14q6 37 6 51q0 118 -76 270h-235v57zM344 141q-92 54 -147 54q-44 0 -75.5 -27.5t-31.5 -65.5q0 -34 24.5 -56.5t59.5 -22.5q50 0 89.5 27.5t80.5 90.5z" />
    <glyph glyph-name="currency" unicode="&#xa4;" horiz-adv-x="1366" 
d="M195 1061l88 90l129 -129q75 57 128.5 74.5t153.5 17.5q80 0 133 -18.5t127 -73.5l127 129l88 -90l-127 -127q57 -82 75 -135.5t18 -143.5q0 -87 -18.5 -138t-74.5 -124l127 -129l-88 -88l-127 127q-80 -56 -133 -74t-139 -18q-93 0 -145 17.5t-125 74.5l-127 -127
l-90 88l129 129q-56 86 -73.5 140t-17.5 137q0 84 18 136t73 128zM358 662q0 -134 95.5 -230t228.5 -96q135 0 230.5 96t95.5 230q0 135 -94 230t-228 95q-135 0 -231.5 -95t-96.5 -230z" />
    <glyph glyph-name="yen" unicode="&#xa5;" horiz-adv-x="1556" 
d="M692 1020h422l178 270h-243v51h475v-51h-172l-181 -270h146v-84h-201l-186 -287v-10h387v-84h-387v-504h223v-51h-690v51h229v504h-452v84h436l-199 297h-237v84h182l-180 270h-181v51h670v-51h-219zM748 936l157 -238l154 238h-311z" />
    <glyph glyph-name="brokenbar" unicode="&#xa6;" horiz-adv-x="1079" 
d="M473 446h133v-722h-133v722zM473 1425h133v-725h-133v725z" />
    <glyph glyph-name="section" unicode="&#xa7;" horiz-adv-x="768" 
d="M240 -377l-15 -8q-12 -6 -12 -16q0 -25 41.5 -42.5t99.5 -17.5q108 0 176 61.5t68 159.5q0 85 -51 146q-47 53 -109 88q-7 4 -23 12.5t-48.5 25.5t-59.5 31q-82 44 -128 85.5t-77 99.5q-45 80 -45 188q0 107 41 171t133 98q-83 69 -118 136t-35 156q0 134 93.5 225
t231.5 91q105 0 184 -57t79 -132q0 -41 -28.5 -70.5t-66.5 -29.5q-35 0 -61.5 27.5t-26.5 62.5q0 40 31 68l10 12q8 5 8 16q0 23 -39 38.5t-96 15.5q-101 0 -169 -58.5t-68 -146.5q0 -58 37 -111q35 -47 77.5 -75t167.5 -87q86 -41 136 -82t84 -98q49 -91 49 -207
q0 -96 -39.5 -160t-126.5 -110q77 -80 107 -145.5t30 -155.5q0 -150 -92.5 -244t-239.5 -94q-101 0 -176.5 56.5t-75.5 131.5q0 44 29 75.5t70 31.5q35 0 59.5 -24t24.5 -58q0 -25 -11.5 -48t-29.5 -32zM326 653l-45 21q-75 -17 -117.5 -65t-42.5 -115q0 -75 57.5 -135.5
t186.5 -122.5q61 -31 94 -50q6 -2 20 -11t21 -13q75 34 110 78.5t35 107.5q0 83 -56.5 146.5t-178.5 119.5z" />
    <glyph glyph-name="dieresis" unicode="&#xa8;" horiz-adv-x="681" 
d="M147 1135q38 0 65.5 -27t27.5 -64q0 -38 -27.5 -65t-65.5 -27q-37 0 -63.5 27t-26.5 65q0 37 26.5 64t63.5 27zM535 1135q37 0 63.5 -27t26.5 -64q0 -38 -26.5 -65t-63.5 -27q-38 0 -64.5 27t-26.5 65q0 37 26.5 64t64.5 27z" />
    <glyph glyph-name="copyright" unicode="&#xa9;" horiz-adv-x="1556" 
d="M1128 1135l21 -281h-39q-71 236 -301 236q-154 0 -239 -105.5t-85 -296.5q0 -189 88.5 -294t245.5 -105q193 0 309 162l37 -21q-139 -203 -387 -203q-196 0 -327.5 129.5t-131.5 323.5q0 192 144 323.5t356 131.5q48 0 79.5 -6t105.5 -31q24 -8 36 -8q18 0 29 9.5
t21 35.5h38zM778 1386q144 0 275.5 -56t226.5 -151t151 -226t56 -275q0 -115 -36 -223.5t-101.5 -195.5t-152.5 -152.5t-195.5 -101.5t-223.5 -36q-144 0 -275 56t-226 151t-151 226.5t-56 275.5t56 275t151 226t226 151t275 56zM778 1325q-176 0 -325 -86.5t-235.5 -235.5
t-86.5 -325t86.5 -325t235.5 -235.5t325 -86.5t325 86.5t235.5 235.5t86.5 325t-86.5 325t-235.5 235.5t-325 86.5z" />
    <glyph glyph-name="ordfeminine" unicode="&#xaa;" horiz-adv-x="661" 
d="M399 1163v62q0 82 -14 102.5t-68 20.5q-108 0 -108 -39q0 -5 4 -17l10 -16q2 -4 2 -21q0 -23 -15.5 -37t-41.5 -14t-42.5 16t-16.5 42q0 51 64.5 80.5t172.5 29.5t144 -28.5t36 -114.5v-219q0 -44 6 -58t23 -14q27 0 45 29h16q-8 -42 -36.5 -65t-73.5 -23q-89 0 -107 96
q-43 -51 -84.5 -73.5t-93.5 -22.5q-66 0 -106.5 32.5t-40.5 83.5q0 29 15 57.5t40 45.5q46 31 105 45t165 20zM399 1071v64q-110 -4 -153 -29.5t-43 -85.5q0 -40 21 -64t55 -24q54 0 87 38t33 101z" />
    <glyph glyph-name="guillemotleft" unicode="&#xab;" 
d="M760 33l-299 397l299 393h192l-299 -393l299 -397h-192zM346 33l-299 397l299 393h189l-295 -393l295 -397h-189z" />
    <glyph glyph-name="logicalnot" unicode="&#xac;" horiz-adv-x="1366" 
d="M139 975h1088v-619h-131v488h-957v131z" />
    <glyph glyph-name="registered" unicode="&#xae;" horiz-adv-x="1556" 
d="M385 1114h387q132 0 214.5 -61t82.5 -158q0 -88 -54 -143t-169 -84l211 -297q35 -51 59.5 -68.5t61.5 -19.5v-35h-185l-295 405h-75v-235v-74q0 -33 27 -47t91 -14v-35h-366v35q69 0 86.5 22.5t17.5 114.5v524q0 49 -2.5 72.5t-13.5 39t-27.5 19t-50.5 4.5v35zM623 696
h30q125 0 189.5 48.5t64.5 142.5q0 75 -57.5 128.5t-140.5 53.5q-41 0 -86 -14v-359zM778 1386q144 0 275.5 -56t226.5 -151t151 -226t56 -275q0 -115 -36 -223.5t-101.5 -195.5t-152.5 -152.5t-195.5 -101.5t-223.5 -36q-144 0 -275 56t-226 151t-151 226.5t-56 275.5
t56 275t151 226t226 151t275 56zM778 1325q-176 0 -325 -86.5t-235.5 -235.5t-86.5 -325t86.5 -325t235.5 -235.5t325 -86.5t325 86.5t235.5 235.5t86.5 325t-86.5 325t-235.5 235.5t-325 86.5z" />
    <glyph glyph-name="macron" unicode="&#xaf;" horiz-adv-x="681" 
d="M39 1075h604v-110h-604v110z" />
    <glyph glyph-name="degree" unicode="&#xb0;" horiz-adv-x="819" 
d="M408 1384q129 0 219 -89.5t90 -215.5q0 -128 -88.5 -218.5t-214.5 -90.5q-129 0 -220.5 91t-91.5 220q0 126 90 214.5t216 88.5zM408 1300q-92 0 -157 -64t-65 -153q0 -95 67 -162t161 -67q91 0 155 66.5t64 158.5t-66 156.5t-159 64.5z" />
    <glyph glyph-name="plusminus" unicode="&#xb1;" horiz-adv-x="1366" 
d="M139 895h477v479h132v-479h479v-131h-479v-477h-132v477h-477v131zM139 86h1088v-131h-1088v131z" />
    <glyph glyph-name="twosuperior" unicode="&#xb2;" horiz-adv-x="661" 
d="M559 844l-22 -185h-488v60q7 7 17 12q3 3 12 10t25 20.5t30 24.5q21 16 43.5 33.5t26.5 20.5l65 47q78 56 114 111.5t36 121.5q0 75 -42 117.5t-114 42.5q-61 0 -106 -30.5t-45 -71.5q0 -21 12 -21q2 0 10 4q20 10 41 10q25 0 43.5 -15t18.5 -36q0 -22 -20 -36.5
t-48 -14.5q-40 0 -66 27t-26 67q0 65 66.5 109.5t164.5 44.5q109 0 178.5 -45t69.5 -115q0 -58 -51.5 -115.5t-194.5 -160.5l-108 -78q-19 -12 -78 -62h295q69 0 84 9q12 7 16 34l2 17l4 43h35z" />
    <glyph glyph-name="threesuperior" unicode="&#xb3;" horiz-adv-x="661" 
d="M209 1020l35 -4h10q68 0 105.5 38.5t37.5 108.5q0 71 -24.5 100t-85.5 29q-45 0 -88 -18q-9 -4 -17 -11t-8 -10q0 -9 21 -16q34 -15 34 -39q0 -19 -19 -33t-44 -14q-26 0 -45 16t-19 39q0 44 58 77.5t135 33.5q106 0 175 -42t69 -106q0 -117 -211 -159v-4
q252 -18 252 -170q0 -78 -85.5 -134.5t-205.5 -56.5q-88 0 -151.5 36t-63.5 85q0 28 19 45.5t48 17.5q28 0 47 -15.5t19 -37.5q0 -15 -10.5 -28.5t-24.5 -18.5q-21 -9 -22 -12q0 -8 21.5 -20t49.5 -19q27 -6 58 -6q157 0 157 153q0 166 -186 166q-21 0 -39 -2h-21
q-28 0 -28 15q0 16 26 16h21z" />
    <glyph glyph-name="acute" unicode="&#xb4;" horiz-adv-x="681" 
d="M356 1202h199l-225 -264h-103z" />
    <glyph glyph-name="mu" unicode="&#xb5;" horiz-adv-x="1024" 
d="M119 915h164v-532v-66q2 -114 36.5 -168.5t106.5 -54.5q113 0 233 135v686h166v-653v-47q1 -74 16.5 -104.5t51.5 -30.5q64 0 82 123h41q-7 -114 -57.5 -173t-139.5 -59q-73 0 -112 46.5t-48 144.5q-66 -78 -107 -111t-106 -59q-54 -21 -102 -21q-51 0 -84 19t-65 67h-5
v-45q0 -74 33 -239q15 -62 15 -101q0 -51 -26.5 -82.5t-68.5 -31.5q-40 0 -64 31t-24 83q0 26 15 99l30 125q7 27 13 97.5t6 131.5v16v49v725z" />
    <glyph glyph-name="paragraph" unicode="&#xb6;" horiz-adv-x="927" 
d="M803 1300v-1742h-72v1742h-186v-1742h-74v1044h-29q-165 7 -260 52t-145 137q-45 83 -45 186q0 179 118.5 279t331.5 100h494v-56h-133z" />
    <glyph glyph-name="periodcentered" unicode="&#xb7;" horiz-adv-x="555" 
d="M297 872q54 0 91.5 -36.5t37.5 -87.5q0 -52 -37 -89.5t-90 -37.5q-52 0 -88.5 37t-36.5 90q0 51 36 87.5t87 36.5z" />
    <glyph glyph-name="cedilla" unicode="&#xb8;" horiz-adv-x="681" 
d="M272 23h103l-35 -123q86 -3 132 -38t46 -98q0 -82 -79 -126t-228 -44q-35 0 -105 11l9 84q68 -6 82 -6q86 0 135 24.5t49 67.5q0 35 -34.5 58.5t-88.5 23.5q-21 0 -33 -2z" />
    <glyph glyph-name="onesuperior" unicode="&#xb9;" horiz-adv-x="661" 
d="M401 1317v-633h152v-25h-424v25h152v588h-152v24h23q132 0 249 21z" />
    <glyph glyph-name="ordmasculine" unicode="&#xba;" horiz-adv-x="641" 
d="M324 1384q117 0 192.5 -70t75.5 -179q0 -101 -81.5 -175.5t-191.5 -74.5q-109 0 -186.5 73t-77.5 177q0 106 77.5 177.5t191.5 71.5zM205 1243l-2 -108v-27q0 -87 9.5 -127t33.5 -55t76 -15q73 0 96.5 37.5t23.5 153.5v33v106q-1 66 -27 91.5t-91 25.5q-68 0 -93.5 -24.5
t-25.5 -90.5z" />
    <glyph glyph-name="guillemotright" unicode="&#xbb;" 
d="M244 823l297 -395l-297 -395h-193l297 395l-297 395h193zM657 823l299 -395l-299 -395h-190l297 395l-297 395h190z" />
    <glyph glyph-name="onequarter" unicode="&#xbc;" horiz-adv-x="1898" 
d="M1630 612v-454h109v71h33v-178h-33v82h-109v-156h96v-24h-331v24h108v156h-305v25q131 184 246 321q40 49 61.5 71.5t63.5 61.5h61zM1503 158v344q-28 -32 -84 -101q-96 -118 -166 -221l-18 -22h268zM483 1317v-633h152v-25h-424v25h151v588h-151v24h22q130 0 250 21z
M1491 1317l-985 -1378h-90l983 1378h92z" />
    <glyph glyph-name="onehalf" unicode="&#xbd;" horiz-adv-x="1898" 
d="M483 1317v-633h152v-25h-424v25h151v588h-151v24h22q130 0 250 21zM1716 137l-22 -184h-488v59q8 6 17 15q38 30 69 53q15 13 29.5 24t25 19t13.5 10l65 47q79 57 115.5 113.5t36.5 122.5q0 73 -42 116t-114 43q-63 0 -107 -30.5t-44 -73.5q0 -18 10 -18q8 0 12 2
q24 12 41 12q25 0 43.5 -15.5t18.5 -35.5q0 -22 -20.5 -38t-49.5 -16q-39 0 -65.5 27.5t-26.5 67.5q0 66 67.5 110.5t165.5 44.5q109 0 177.5 -44.5t68.5 -114.5q0 -60 -51 -118.5t-195 -158.5l-108 -78q-28 -20 -76 -63h295q69 0 82 8q14 7 16 37l4 16l4 41h33zM1491 1317
l-985 -1378h-90l983 1378h92z" />
    <glyph glyph-name="threequarters" unicode="&#xbe;" horiz-adv-x="1898" 
d="M1630 612v-454h109v71h33v-178h-33v82h-109v-156h96v-24h-331v24h108v156h-305v25q131 184 246 321q40 49 61.5 71.5t63.5 61.5h61zM1503 158v344q-28 -32 -84 -101q-96 -118 -166 -221l-18 -22h268zM410 1008v2v-4q124 -9 188 -52.5t64 -117.5q0 -78 -85.5 -134.5
t-205.5 -56.5q-88 0 -151.5 36t-63.5 85q0 28 19 45.5t48 17.5q26 0 45 -15.5t19 -37.5q0 -15 -9.5 -28.5t-23.5 -18.5q-22 -9 -23 -12q0 -8 22 -20t50 -19q24 -6 57 -6q80 0 118 37.5t38 115.5q0 166 -184 166q-23 0 -39 -2h-19q-30 0 -30 15q0 16 28 16h19q23 -4 43 -4
q69 0 107 38.5t38 108.5q0 71 -24.5 100t-85.5 29q-45 0 -88 -18q-10 -4 -17.5 -11t-7.5 -10q0 -9 20 -16q35 -15 35 -39q0 -19 -19 -33t-44 -14q-26 0 -45 16t-19 39q0 44 58 77.5t135 33.5q106 0 175 -42t69 -106q0 -116 -211 -161zM1491 1317l-985 -1378h-90l983 1378h92
z" />
    <glyph glyph-name="questiondown" unicode="&#xbf;" horiz-adv-x="897" 
d="M563 440h45q15 -94 15 -125q0 -230 -148 -348l-113 -90q-88 -72 -88 -162q0 -83 70.5 -140.5t173.5 -57.5q89 0 150 43q32 21 51.5 47t19.5 45q0 14 -22 14q-49 4 -79 32t-30 69q0 40 30 68t71 28q51 0 80.5 -35.5t29.5 -95.5q0 -109 -88.5 -185.5t-214.5 -76.5
q-148 0 -248 102.5t-100 251.5q0 115 55.5 194.5t208.5 184.5q74 51 104.5 94.5t30.5 95.5q0 11 -4 47zM565 598q-54 0 -91.5 36.5t-37.5 88.5q0 53 36.5 90t90.5 37q51 0 88 -37.5t37 -89.5t-36 -88.5t-87 -36.5z" />
    <glyph glyph-name="Agrave" unicode="&#xc0;" horiz-adv-x="1449" 
d="M858 418h-426l-135 -367h246v-51h-486v51h185l491 1321h29l469 -1321h180v-51h-639v51h217zM840 469l-189 537h-4l-196 -537h389zM711 1714l129 -264h-103l-225 264h199z" />
    <glyph glyph-name="Aacute" unicode="&#xc1;" horiz-adv-x="1449" 
d="M858 418h-426l-135 -367h246v-51h-486v51h185l491 1321h29l469 -1321h180v-51h-639v51h217zM840 469l-189 537h-4l-196 -537h389zM741 1714h199l-225 -264h-103z" />
    <glyph glyph-name="Acircumflex" unicode="&#xc2;" horiz-adv-x="1449" 
d="M858 418h-426l-135 -367h246v-51h-486v51h185l491 1321h29l469 -1321h180v-51h-639v51h217zM840 469l-189 537h-4l-196 -537h389zM643 1714h166l197 -264h-138l-139 182l-139 -182h-144z" />
    <glyph glyph-name="Atilde" unicode="&#xc3;" horiz-adv-x="1449" 
d="M858 418h-426l-135 -367h246v-51h-486v51h185l491 1321h29l469 -1321h180v-51h-639v51h217zM840 469l-189 537h-4l-196 -537h389zM932 1669h94q-6 -89 -42.5 -137.5t-96.5 -48.5q-31 0 -62 8.5t-112 38.5q-91 33 -129 33q-34 0 -50 -18.5t-20 -63.5h-88q12 188 133 188
q40 0 164 -39l98 -28q33 -11 39 -11q60 0 72 78z" />
    <glyph glyph-name="Adieresis" unicode="&#xc4;" horiz-adv-x="1449" 
d="M858 418h-426l-135 -367h246v-51h-486v51h185l491 1321h29l469 -1321h180v-51h-639v51h217zM840 469l-189 537h-4l-196 -537h389zM532 1647q38 0 65.5 -27t27.5 -64q0 -38 -27.5 -65t-65.5 -27q-37 0 -63.5 27t-26.5 65q0 37 26.5 64t63.5 27zM920 1647q37 0 63.5 -27
t26.5 -64q0 -38 -26.5 -65t-63.5 -27q-38 0 -64.5 27t-26.5 65q0 37 26.5 64t64.5 27z" />
    <glyph glyph-name="Aring" unicode="&#xc5;" horiz-adv-x="1449" 
d="M858 418h-426l-135 -367h246v-51h-486v51h185l491 1321h29l469 -1321h180v-51h-639v51h217zM840 469l-189 537h-4l-196 -537h389zM905 1583q0 -74 -52.5 -126t-127.5 -52q-73 0 -125.5 52.5t-52.5 125.5q0 75 52 127.5t126 52.5q75 0 127.5 -52.5t52.5 -127.5zM844 1581
q0 47 -35 81t-84 34q-47 0 -80 -34t-33 -81q0 -46 33.5 -78.5t79.5 -32.5q49 0 84 32.5t35 78.5z" />
    <glyph glyph-name="AE" unicode="&#xc6;" horiz-adv-x="1921" 
d="M895 418h-496l-211 -367h183v-51h-408v51h164l719 1239h-223v51h1149l20 -356h-45q-23 119 -66.5 186t-113.5 93q-49 17 -86.5 21.5t-128.5 4.5h-232v-579h60q103 0 150 22t73 82q23 57 37 150h47v-564h-47l-8 48q-13 89 -38 133t-73.5 62t-142.5 18h-58v-611h279h59
q89 3 154 45q81 54 123 142q26 53 36 91.5t21 121.5h41l-10 -451h-1159v51h231v367zM895 471v819h-4l-463 -819h467z" />
    <glyph glyph-name="Ccedilla" unicode="&#xc7;" horiz-adv-x="1216" 
d="M1085 1356v-398h-45q-34 182 -128.5 275.5t-243.5 93.5q-89 0 -156 -50.5t-92 -135.5q-23 -76 -32 -182t-9 -297q0 -202 10.5 -307t38.5 -171q23 -56 64 -94q34 -31 87.5 -50.5t106.5 -19.5q135 0 236.5 99t152.5 282h47l-16 -409h-41q-17 41 -29 59t-43 49
q-162 -131 -315 -131q-115 0 -221 55t-183 148t-122.5 221.5t-45.5 268.5q0 142 45.5 273t121.5 226.5t179.5 153t215.5 57.5q95 0 170 -29.5t145 -95.5q37 60 57 109h45zM541 23h102l-35 -123q86 -3 132 -38t46 -98q0 -82 -79 -126t-228 -44q-34 0 -104 11l8 84
q67 -6 82 -6q86 0 135 24.5t49 67.5q0 35 -34.5 58.5t-88.5 23.5q-20 0 -32 -2z" />
    <glyph glyph-name="Egrave" unicode="&#xc8;" horiz-adv-x="1429" 
d="M561 1290v-575h123q123 0 172 54.5t55 197.5h54v-568h-54q-6 106 -30 161t-76 83q-29 14 -47.5 17.5t-75.5 3.5h-121v-613h273q217 0 312.5 89t115.5 309h51l-13 -449h-1189v51h211v1239h-211v51h1140l23 -358h-51q-29 172 -112 239.5t-265 67.5h-285zM700 1714l129 -264
h-102l-225 264h198z" />
    <glyph glyph-name="Eacute" unicode="&#xc9;" horiz-adv-x="1429" 
d="M561 1290v-575h123q123 0 172 54.5t55 197.5h54v-568h-54q-6 106 -30 161t-76 83q-29 14 -47.5 17.5t-75.5 3.5h-121v-613h273q217 0 312.5 89t115.5 309h51l-13 -449h-1189v51h211v1239h-211v51h1140l23 -358h-51q-29 172 -112 239.5t-265 67.5h-285zM731 1714h199
l-225 -264h-103z" />
    <glyph glyph-name="Ecircumflex" unicode="&#xca;" horiz-adv-x="1429" 
d="M561 1290v-575h123q123 0 172 54.5t55 197.5h54v-568h-54q-6 106 -30 161t-76 83q-29 14 -47.5 17.5t-75.5 3.5h-121v-613h273q217 0 312.5 89t115.5 309h51l-13 -449h-1189v51h211v1239h-211v51h1140l23 -358h-51q-29 172 -112 239.5t-265 67.5h-285zM633 1714h166
l196 -264h-137l-139 182l-139 -182h-144z" />
    <glyph glyph-name="Edieresis" unicode="&#xcb;" horiz-adv-x="1429" 
d="M561 1290v-575h123q123 0 172 54.5t55 197.5h54v-568h-54q-6 106 -30 161t-76 83q-29 14 -47.5 17.5t-75.5 3.5h-121v-613h273q217 0 312.5 89t115.5 309h51l-13 -449h-1189v51h211v1239h-211v51h1140l23 -358h-51q-29 172 -112 239.5t-265 67.5h-285zM522 1647
q38 0 65 -27t27 -64q0 -38 -27 -65t-65 -27q-37 0 -63.5 27t-26.5 65q0 37 26.5 64t63.5 27zM909 1647q37 0 63.5 -27t26.5 -64q0 -38 -26.5 -65t-63.5 -27q-38 0 -64 27t-26 65q0 37 26 64t64 27z" />
    <glyph glyph-name="Igrave" unicode="&#xcc;" horiz-adv-x="874" 
d="M346 51v1239h-223v51h672v-51h-220v-1239h220v-51h-672v51h223zM422 1714l129 -264h-102l-226 264h199z" />
    <glyph glyph-name="Iacute" unicode="&#xcd;" horiz-adv-x="874" 
d="M346 51v1239h-223v51h672v-51h-220v-1239h220v-51h-672v51h223zM453 1714h198l-225 -264h-102z" />
    <glyph glyph-name="Icircumflex" unicode="&#xce;" horiz-adv-x="874" 
d="M346 51v1239h-223v51h672v-51h-220v-1239h220v-51h-672v51h223zM354 1714h166l197 -264h-137l-140 182l-139 -182h-143z" />
    <glyph glyph-name="Idieresis" unicode="&#xcf;" horiz-adv-x="874" 
d="M346 51v1239h-223v51h672v-51h-220v-1239h220v-51h-672v51h223zM244 1647q38 0 65 -27t27 -64q0 -38 -27 -65t-65 -27q-37 0 -63.5 27t-26.5 65q0 37 26.5 64t63.5 27zM631 1647q37 0 63.5 -27t26.5 -64q0 -38 -26.5 -65t-63.5 -27q-38 0 -64 27t-26 65q0 37 26 64t64 27
z" />
    <glyph glyph-name="Eth" unicode="&#xd0;" horiz-adv-x="1556" 
d="M305 645h-211v51h211v594h-213v51h633q129 0 209.5 -13.5t152.5 -47.5q157 -75 252 -243.5t95 -372.5q0 -257 -157 -442.5t-400 -213.5q-63 -8 -156 -8h-629v51h213v594zM539 645v-594h174q100 0 155.5 8t98.5 29q67 32 116 103.5t66 162.5q25 150 25 320q0 259 -44 390
t-149 185q-77 41 -201 41h-63h-178v-594h338v-51h-338z" />
    <glyph glyph-name="Ntilde" unicode="&#xd1;" horiz-adv-x="1556" 
d="M1280 1290v-1321h-41l-881 1327h-4v-1245h228v-51h-478v51h199v1239h-215v51h512l625 -940h4v889h-221v51h477v-51h-205zM985 1669h94q-6 -89 -42.5 -137.5t-96.5 -48.5q-31 0 -62 8.5t-112 38.5q-91 33 -129 33q-34 0 -50 -18.5t-20 -63.5h-88q12 188 133 188
q40 0 164 -39l98 -28q33 -11 39 -11q60 0 72 78z" />
    <glyph glyph-name="Ograve" unicode="&#xd2;" horiz-adv-x="1449" 
d="M104 694q9 186 98 342t234 246t312 90q151 0 291 -99.5t225.5 -262.5t85.5 -338q0 -184 -86 -347t-230.5 -260.5t-308.5 -97.5q-121 0 -235.5 57.5t-199 152.5t-135.5 224.5t-51 266.5v26zM387 688q0 -260 17.5 -376t66.5 -179q41 -54 107 -83.5t145 -29.5q129 0 212 66
t105 186q27 135 27 455q0 230 -19 336t-71 164q-40 44 -105.5 69t-140.5 25q-117 0 -198 -51.5t-107 -143.5q-39 -130 -39 -438zM711 1714l129 -264h-103l-225 264h199z" />
    <glyph glyph-name="Oacute" unicode="&#xd3;" horiz-adv-x="1449" 
d="M104 694q9 186 98 342t234 246t312 90q151 0 291 -99.5t225.5 -262.5t85.5 -338q0 -184 -86 -347t-230.5 -260.5t-308.5 -97.5q-121 0 -235.5 57.5t-199 152.5t-135.5 224.5t-51 266.5v26zM387 688q0 -260 17.5 -376t66.5 -179q41 -54 107 -83.5t145 -29.5q129 0 212 66
t105 186q27 135 27 455q0 230 -19 336t-71 164q-40 44 -105.5 69t-140.5 25q-117 0 -198 -51.5t-107 -143.5q-39 -130 -39 -438zM741 1714h199l-225 -264h-103z" />
    <glyph glyph-name="Ocircumflex" unicode="&#xd4;" horiz-adv-x="1449" 
d="M104 694q9 186 98 342t234 246t312 90q151 0 291 -99.5t225.5 -262.5t85.5 -338q0 -184 -86 -347t-230.5 -260.5t-308.5 -97.5q-121 0 -235.5 57.5t-199 152.5t-135.5 224.5t-51 266.5v26zM387 688q0 -260 17.5 -376t66.5 -179q41 -54 107 -83.5t145 -29.5q129 0 212 66
t105 186q27 135 27 455q0 230 -19 336t-71 164q-40 44 -105.5 69t-140.5 25q-117 0 -198 -51.5t-107 -143.5q-39 -130 -39 -438zM643 1714h166l197 -264h-138l-139 182l-139 -182h-144z" />
    <glyph glyph-name="Otilde" unicode="&#xd5;" horiz-adv-x="1449" 
d="M104 694q9 186 98 342t234 246t312 90q151 0 291 -99.5t225.5 -262.5t85.5 -338q0 -184 -86 -347t-230.5 -260.5t-308.5 -97.5q-121 0 -235.5 57.5t-199 152.5t-135.5 224.5t-51 266.5v26zM387 688q0 -260 17.5 -376t66.5 -179q41 -54 107 -83.5t145 -29.5q129 0 212 66
t105 186q27 135 27 455q0 230 -19 336t-71 164q-40 44 -105.5 69t-140.5 25q-117 0 -198 -51.5t-107 -143.5q-39 -130 -39 -438zM932 1669h94q-6 -89 -42.5 -137.5t-96.5 -48.5q-31 0 -62 8.5t-112 38.5q-91 33 -129 33q-34 0 -50 -18.5t-20 -63.5h-88q12 188 133 188
q40 0 164 -39l98 -28q33 -11 39 -11q60 0 72 78z" />
    <glyph glyph-name="Odieresis" unicode="&#xd6;" horiz-adv-x="1449" 
d="M104 694q9 186 98 342t234 246t312 90q151 0 291 -99.5t225.5 -262.5t85.5 -338q0 -184 -86 -347t-230.5 -260.5t-308.5 -97.5q-121 0 -235.5 57.5t-199 152.5t-135.5 224.5t-51 266.5v26zM387 688q0 -260 17.5 -376t66.5 -179q41 -54 107 -83.5t145 -29.5q129 0 212 66
t105 186q27 135 27 455q0 230 -19 336t-71 164q-40 44 -105.5 69t-140.5 25q-117 0 -198 -51.5t-107 -143.5q-39 -130 -39 -438zM532 1647q38 0 65.5 -27t27.5 -64q0 -38 -27.5 -65t-65.5 -27q-37 0 -63.5 27t-26.5 65q0 37 26.5 64t63.5 27zM920 1647q37 0 63.5 -27
t26.5 -64q0 -38 -26.5 -65t-63.5 -27q-38 0 -64.5 27t-26.5 65q0 37 26.5 64t64.5 27z" />
    <glyph glyph-name="multiply" unicode="&#xd7;" horiz-adv-x="1368" 
d="M184 1071l92 92l408 -409l410 409l92 -94l-408 -407l404 -406l-92 -92l-406 405l-405 -405l-93 92l406 406z" />
    <glyph glyph-name="Oslash" unicode="&#xd8;" horiz-adv-x="1429" 
d="M1313 1343l-160 -186q90 -102 138 -228t48 -257q0 -184 -85.5 -347t-230 -260.5t-308.5 -97.5q-112 0 -222 50.5t-194 138.5l-162 -189l-37 33l166 195l-4 4q-81 102 -124.5 224t-43.5 247q0 187 87.5 349t236 257.5t319.5 95.5q96 0 196 -45.5t183 -128.5l4 -4l156 182z
M1042 1026l-643 -752q22 -120 105 -187t209 -67q129 0 212 66t105 186q27 135 27 471q0 152 -13 279zM389 340l643 750q-25 110 -106 170.5t-205 60.5q-117 0 -198 -52t-109 -143q-39 -136 -39 -464q0 -193 14 -316v-6z" />
    <glyph glyph-name="Ugrave" unicode="&#xd9;" horiz-adv-x="1556" 
d="M1225 1290h-219v51h481v-51h-211v-811q0 -205 -42.5 -300.5t-158.5 -149.5q-126 -60 -291 -60q-215 0 -329 74.5t-133 228.5q-11 94 -11 207v811h-194v51h641v-51h-211v-786q0 -140 7.5 -210.5t27.5 -115.5q67 -149 262 -149q146 0 243.5 61.5t120.5 167.5q14 80 17 195
v49v788zM764 1714l129 -264h-102l-226 264h199z" />
    <glyph glyph-name="Uacute" unicode="&#xda;" horiz-adv-x="1556" 
d="M1225 1290h-219v51h481v-51h-211v-811q0 -205 -42.5 -300.5t-158.5 -149.5q-126 -60 -291 -60q-215 0 -329 74.5t-133 228.5q-11 94 -11 207v811h-194v51h641v-51h-211v-786q0 -140 7.5 -210.5t27.5 -115.5q67 -149 262 -149q146 0 243.5 61.5t120.5 167.5q14 80 17 195
v49v788zM795 1714h198l-225 -264h-102z" />
    <glyph glyph-name="Ucircumflex" unicode="&#xdb;" horiz-adv-x="1556" 
d="M1225 1290h-219v51h481v-51h-211v-811q0 -205 -42.5 -300.5t-158.5 -149.5q-126 -60 -291 -60q-215 0 -329 74.5t-133 228.5q-11 94 -11 207v811h-194v51h641v-51h-211v-786q0 -140 7.5 -210.5t27.5 -115.5q67 -149 262 -149q146 0 243.5 61.5t120.5 167.5q14 80 17 195
v49v788zM696 1714h166l197 -264h-137l-140 182l-139 -182h-143z" />
    <glyph glyph-name="Udieresis" unicode="&#xdc;" horiz-adv-x="1556" 
d="M1225 1290h-219v51h481v-51h-211v-811q0 -205 -42.5 -300.5t-158.5 -149.5q-126 -60 -291 -60q-215 0 -329 74.5t-133 228.5q-11 94 -11 207v811h-194v51h641v-51h-211v-786q0 -140 7.5 -210.5t27.5 -115.5q67 -149 262 -149q146 0 243.5 61.5t120.5 167.5q14 80 17 195
v49v788zM586 1647q38 0 65 -27t27 -64q0 -38 -27 -65t-65 -27q-37 0 -63.5 27t-26.5 65q0 37 26.5 64t63.5 27zM973 1647q37 0 63.5 -27t26.5 -64q0 -38 -26.5 -65t-63.5 -27q-38 0 -64 27t-26 65q0 37 26 64t64 27z" />
    <glyph glyph-name="Yacute" unicode="&#xdd;" horiz-adv-x="1556" 
d="M61 1341h670v-51h-219l393 -592l387 592h-243v51h475v-51h-172l-422 -641v-598h223v-51h-690v51h229v563l-450 676h-181v51zM795 1714h198l-225 -264h-102z" />
    <glyph glyph-name="Thorn" unicode="&#xde;" horiz-adv-x="1343" 
d="M553 1341h215v-51h-213v-231h236q219 0 345 -96.5t126 -264.5q0 -177 -133 -270.5t-384 -93.5h-192v-283h215v-51h-668v51h213v1239h-213v51l453 2v-2zM553 383h129q124 0 184 25q75 32 110.5 107.5t35.5 205.5q0 96 -29.5 164t-83.5 96q-52 27 -115 27h-57h-174v-625z
" />
    <glyph glyph-name="germandbls" unicode="&#xdf;" horiz-adv-x="1110" 
d="M178 51v750q0 155 5.5 201t31.5 118q31 82 104 146q106 90 269 90q166 0 276.5 -87t110.5 -218q0 -61 -33.5 -120t-89.5 -97q-32 -23 -64.5 -36t-93.5 -26v-4q183 -38 260.5 -125t77.5 -252q0 -173 -95.5 -290t-236.5 -117q-82 0 -132 43t-50 114q0 47 25 78t63 31
q37 0 60.5 -24.5t23.5 -63.5q0 -52 -45 -74l-14 -8q-10 -7 -10 -14q0 -15 30 -27q21 -6 39 -6q68 0 92.5 59t24.5 223q0 173 -9 254.5t-32 110.5q-28 35 -75.5 49t-137.5 14h-23v43h19q126 0 169.5 49.5t43.5 192.5q0 158 -41.5 221.5t-145.5 63.5q-92 0 -139 -56
q-37 -42 -48 -98t-11 -190v-918h92v-51h-428v51h137z" />
    <glyph glyph-name="agrave" unicode="&#xe0;" 
d="M606 449v102q0 48 -1.5 78t-7 55t-13.5 37.5t-24 21t-35 11t-50 2.5q-72 0 -117 -17.5t-45 -46.5q0 -11 9 -26q18 -37 18 -64q0 -37 -25 -60.5t-63 -23.5q-40 0 -66 26t-26 66q0 86 99 137.5t265 51.5q240 0 271 -123q8 -29 8 -115v-368q0 -74 8.5 -97.5t34.5 -23.5
q40 0 72 49h24q-12 -71 -56 -108.5t-114 -37.5q-136 0 -166 160q-64 -85 -128 -122.5t-144 -37.5q-98 0 -164 53.5t-66 133.5q0 97 69.5 163.5t201.5 94.5q101 22 231 29zM606 295v106q-170 -6 -236.5 -48.5t-66.5 -145.5q0 -63 33 -102t86 -39q83 0 133.5 62.5t50.5 166.5z
M487 1202l129 -264h-102l-225 264h198z" />
    <glyph glyph-name="aacute" unicode="&#xe1;" 
d="M606 449v102q0 48 -1.5 78t-7 55t-13.5 37.5t-24 21t-35 11t-50 2.5q-72 0 -117 -17.5t-45 -46.5q0 -11 9 -26q18 -37 18 -64q0 -37 -25 -60.5t-63 -23.5q-40 0 -66 26t-26 66q0 86 99 137.5t265 51.5q240 0 271 -123q8 -29 8 -115v-368q0 -74 8.5 -97.5t34.5 -23.5
q40 0 72 49h24q-12 -71 -56 -108.5t-114 -37.5q-136 0 -166 160q-64 -85 -128 -122.5t-144 -37.5q-98 0 -164 53.5t-66 133.5q0 97 69.5 163.5t201.5 94.5q101 22 231 29zM606 295v106q-170 -6 -236.5 -48.5t-66.5 -145.5q0 -63 33 -102t86 -39q83 0 133.5 62.5t50.5 166.5z
M518 1202h199l-225 -264h-103z" />
    <glyph glyph-name="acircumflex" unicode="&#xe2;" 
d="M606 449v102q0 48 -1.5 78t-7 55t-13.5 37.5t-24 21t-35 11t-50 2.5q-72 0 -117 -17.5t-45 -46.5q0 -11 9 -26q18 -37 18 -64q0 -37 -25 -60.5t-63 -23.5q-40 0 -66 26t-26 66q0 86 99 137.5t265 51.5q240 0 271 -123q8 -29 8 -115v-368q0 -74 8.5 -97.5t34.5 -23.5
q40 0 72 49h24q-12 -71 -56 -108.5t-114 -37.5q-136 0 -166 160q-64 -85 -128 -122.5t-144 -37.5q-98 0 -164 53.5t-66 133.5q0 97 69.5 163.5t201.5 94.5q101 22 231 29zM606 295v106q-170 -6 -236.5 -48.5t-66.5 -145.5q0 -63 33 -102t86 -39q83 0 133.5 62.5t50.5 166.5z
M420 1202h166l196 -264h-137l-139 182l-139 -182h-144z" />
    <glyph glyph-name="atilde" unicode="&#xe3;" 
d="M606 449v102q0 48 -1.5 78t-7 55t-13.5 37.5t-24 21t-35 11t-50 2.5q-72 0 -117 -17.5t-45 -46.5q0 -11 9 -26q18 -37 18 -64q0 -37 -25 -60.5t-63 -23.5q-40 0 -66 26t-26 66q0 86 99 137.5t265 51.5q240 0 271 -123q8 -29 8 -115v-368q0 -74 8.5 -97.5t34.5 -23.5
q40 0 72 49h24q-12 -71 -56 -108.5t-114 -37.5q-136 0 -166 160q-64 -85 -128 -122.5t-144 -37.5q-98 0 -164 53.5t-66 133.5q0 97 69.5 163.5t201.5 94.5q101 22 231 29zM606 295v106q-170 -6 -236.5 -48.5t-66.5 -145.5q0 -63 33 -102t86 -39q83 0 133.5 62.5t50.5 166.5z
M709 1157h94q-6 -89 -42.5 -137.5t-96.5 -48.5q-31 0 -63 8.5t-112 38.5q-91 33 -129 33q-34 0 -49.5 -18t-19.5 -64h-88q12 188 133 188q40 0 164 -39l98 -28q33 -11 39 -11q60 0 72 78z" />
    <glyph glyph-name="adieresis" unicode="&#xe4;" 
d="M606 449v102q0 48 -1.5 78t-7 55t-13.5 37.5t-24 21t-35 11t-50 2.5q-72 0 -117 -17.5t-45 -46.5q0 -11 9 -26q18 -37 18 -64q0 -37 -25 -60.5t-63 -23.5q-40 0 -66 26t-26 66q0 86 99 137.5t265 51.5q240 0 271 -123q8 -29 8 -115v-368q0 -74 8.5 -97.5t34.5 -23.5
q40 0 72 49h24q-12 -71 -56 -108.5t-114 -37.5q-136 0 -166 160q-64 -85 -128 -122.5t-144 -37.5q-98 0 -164 53.5t-66 133.5q0 97 69.5 163.5t201.5 94.5q101 22 231 29zM606 295v106q-170 -6 -236.5 -48.5t-66.5 -145.5q0 -63 33 -102t86 -39q83 0 133.5 62.5t50.5 166.5z
M309 1135q38 0 65 -27t27 -64q0 -38 -27 -65t-65 -27q-37 0 -63.5 27t-26.5 65q0 37 26.5 64t63.5 27zM696 1135q37 0 63.5 -27t26.5 -64q0 -38 -26.5 -65t-63.5 -27q-38 0 -64 27t-26 65q0 37 26 64t64 27z" />
    <glyph glyph-name="aring" unicode="&#xe5;" 
d="M606 449v102q0 48 -1.5 78t-7 55t-13.5 37.5t-24 21t-35 11t-50 2.5q-72 0 -117 -17.5t-45 -46.5q0 -11 9 -26q18 -37 18 -64q0 -37 -25 -60.5t-63 -23.5q-40 0 -66 26t-26 66q0 86 99 137.5t265 51.5q240 0 271 -123q8 -29 8 -115v-368q0 -74 8.5 -97.5t34.5 -23.5
q40 0 72 49h24q-12 -71 -56 -108.5t-114 -37.5q-136 0 -166 160q-64 -85 -128 -122.5t-144 -37.5q-98 0 -164 53.5t-66 133.5q0 97 69.5 163.5t201.5 94.5q101 22 231 29zM606 295v106q-170 -6 -236.5 -48.5t-66.5 -145.5q0 -63 33 -102t86 -39q83 0 133.5 62.5t50.5 166.5z
M682 1071q0 -74 -52.5 -126t-127.5 -52q-74 0 -126 52.5t-52 125.5q0 75 52 127.5t126 52.5q75 0 127.5 -52.5t52.5 -127.5zM621 1069q0 47 -35 81t-84 34q-47 0 -80 -34t-33 -81q0 -46 33.5 -78.5t79.5 -32.5q49 0 84 32.5t35 78.5z" />
    <glyph glyph-name="ae" unicode="&#xe6;" horiz-adv-x="1323" 
d="M743 446v-122q0 -162 41.5 -228.5t141.5 -66.5q221 0 295 245h45q-43 -155 -129.5 -227t-231.5 -72q-81 0 -158.5 37.5t-130.5 102.5q-15 21 -36 51q-39 -59 -65 -87t-62 -52q-77 -52 -168 -52q-95 0 -157 57t-62 144q0 126 125 195.5t358 74.5v111q0 126 -26.5 167.5
t-106.5 41.5q-60 0 -107 -21t-47 -47q0 -8 4 -12l17 -16q22 -22 22 -60t-27.5 -63t-68.5 -25t-65.5 25.5t-24.5 66.5q0 86 92 141.5t235 55.5q78 0 136.5 -14.5t122.5 -51.5q64 37 106.5 51.5t91.5 14.5q157 0 255.5 -99t107.5 -266h-523zM743 492h310q-2 23 -2 51
q0 130 -31 176.5t-117 46.5q-92 0 -125 -48t-33 -183q0 -4 -1 -18.5t-1 -24.5zM549 223v180q-111 -6 -165 -21.5t-85 -49.5q-41 -44 -41 -121q0 -65 31 -105t82 -40q117 0 178 157z" />
    <glyph glyph-name="ccedilla" unicode="&#xe7;" horiz-adv-x="874" 
d="M776 272h43q-29 -142 -115.5 -219.5t-216.5 -77.5q-161 0 -281 121.5t-120 284.5q0 181 121.5 305.5t296.5 124.5q120 0 203.5 -61t83.5 -148q0 -44 -29 -74t-70 -30q-43 0 -71.5 27.5t-28.5 70.5q0 28 20 55l21 27q8 8 8 20q0 29 -38 49.5t-93 20.5q-114 0 -156 -57
q-31 -38 -41 -96t-10 -191q0 -154 10 -227t35 -107q48 -67 150 -67q68 0 128 34.5t97 94.5q28 44 53 120zM369 23h102l-35 -123q86 -3 132 -38t46 -98q0 -82 -79 -126t-228 -44q-34 0 -104 11l8 84q67 -6 82 -6q86 0 135 24.5t49 67.5q0 35 -34.5 58.5t-88.5 23.5
q-20 0 -32 -2z" />
    <glyph glyph-name="egrave" unicode="&#xe8;" horiz-adv-x="874" 
d="M807 453h-508q-2 -35 -2 -72q0 -133 7.5 -192.5t27.5 -96.5q17 -33 57 -52.5t90 -19.5q61 0 118 27.5t97 75.5q25 30 38.5 57.5t31.5 85.5h43q-28 -136 -115 -213.5t-213 -77.5q-165 0 -283 120t-118 288q0 179 110.5 303.5t270.5 124.5q88 0 160.5 -36.5t119.5 -104.5
q34 -48 48 -91.5t20 -125.5zM297 498h295q8 73 8 108q0 78 -37 119t-108 41q-91 0 -124.5 -46.5t-33.5 -174.5v-47zM422 1202l129 -264h-102l-226 264h199z" />
    <glyph glyph-name="eacute" unicode="&#xe9;" horiz-adv-x="874" 
d="M807 453h-508q-2 -35 -2 -72q0 -133 7.5 -192.5t27.5 -96.5q17 -33 57 -52.5t90 -19.5q61 0 118 27.5t97 75.5q25 30 38.5 57.5t31.5 85.5h43q-28 -136 -115 -213.5t-213 -77.5q-165 0 -283 120t-118 288q0 179 110.5 303.5t270.5 124.5q88 0 160.5 -36.5t119.5 -104.5
q34 -48 48 -91.5t20 -125.5zM297 498h295q8 73 8 108q0 78 -37 119t-108 41q-91 0 -124.5 -46.5t-33.5 -174.5v-47zM453 1202h198l-225 -264h-102z" />
    <glyph glyph-name="ecircumflex" unicode="&#xea;" horiz-adv-x="874" 
d="M807 453h-508q-2 -35 -2 -72q0 -133 7.5 -192.5t27.5 -96.5q17 -33 57 -52.5t90 -19.5q61 0 118 27.5t97 75.5q25 30 38.5 57.5t31.5 85.5h43q-28 -136 -115 -213.5t-213 -77.5q-165 0 -283 120t-118 288q0 179 110.5 303.5t270.5 124.5q88 0 160.5 -36.5t119.5 -104.5
q34 -48 48 -91.5t20 -125.5zM297 498h295q8 73 8 108q0 78 -37 119t-108 41q-91 0 -124.5 -46.5t-33.5 -174.5v-47zM354 1202h166l197 -264h-137l-140 182l-139 -182h-143z" />
    <glyph glyph-name="edieresis" unicode="&#xeb;" horiz-adv-x="874" 
d="M807 453h-508q-2 -35 -2 -72q0 -133 7.5 -192.5t27.5 -96.5q17 -33 57 -52.5t90 -19.5q61 0 118 27.5t97 75.5q25 30 38.5 57.5t31.5 85.5h43q-28 -136 -115 -213.5t-213 -77.5q-165 0 -283 120t-118 288q0 179 110.5 303.5t270.5 124.5q88 0 160.5 -36.5t119.5 -104.5
q34 -48 48 -91.5t20 -125.5zM297 498h295q8 73 8 108q0 78 -37 119t-108 41q-91 0 -124.5 -46.5t-33.5 -174.5v-47zM244 1135q38 0 65 -27t27 -64q0 -38 -27 -65t-65 -27q-37 0 -63.5 27t-26.5 65q0 37 26.5 64t63.5 27zM631 1135q37 0 63.5 -27t26.5 -64q0 -38 -26.5 -65
t-63.5 -27q-38 0 -64 27t-26 65q0 37 26 64t64 27z" />
    <glyph glyph-name="igrave" unicode="&#xec;" horiz-adv-x="555" 
d="M379 801v-750h131v-51h-465v51h141v684h-141v51h141q102 0 193 15zM262 1202l129 -264h-102l-226 264h199z" />
    <glyph glyph-name="iacute" unicode="&#xed;" horiz-adv-x="555" 
d="M379 801v-750h131v-51h-465v51h141v684h-141v51h141q102 0 193 15zM293 1202h199l-226 -264h-102z" />
    <glyph glyph-name="icircumflex" unicode="&#xee;" horiz-adv-x="555" 
d="M379 801v-750h131v-51h-465v51h141v684h-141v51h141q102 0 193 15zM195 1202h165l197 -264h-137l-139 182l-140 -182h-143z" />
    <glyph glyph-name="idieresis" unicode="&#xef;" horiz-adv-x="555" 
d="M379 801v-750h131v-51h-465v51h141v684h-141v51h141q102 0 193 15zM84 1135q38 0 65 -27t27 -64q0 -38 -27 -65t-65 -27q-37 0 -63.5 27t-26.5 65q0 37 26.5 64t63.5 27zM471 1135q37 0 63.5 -27t26.5 -64q0 -38 -26.5 -65t-63.5 -27q-38 0 -64 27t-26 65q0 37 26 64
t64 27z" />
    <glyph glyph-name="eth" unicode="&#xf0;" horiz-adv-x="1024" 
d="M469 1169l-248 -135l-28 56l233 131q-71 69 -101 94.5t-87 62.5l26 45q81 -42 124.5 -69t121.5 -86l250 139l35 -55l-230 -131q183 -158 283 -353.5t100 -392.5q0 -223 -128 -363.5t-331 -140.5q-115 0 -212 62.5t-153 170t-56 234.5q0 135 56 249.5t153 181.5t212 67
q49 0 83.5 -12.5t80.5 -46.5l4 4q-48 93 -88.5 156t-99.5 132zM481 874q-107 0 -168 -89.5t-61 -249.5q0 -223 81.5 -358.5t215.5 -135.5q103 0 159 89t56 251q0 220 -78.5 356.5t-204.5 136.5z" />
    <glyph glyph-name="ntilde" unicode="&#xf1;" horiz-adv-x="1110" 
d="M205 51v684h-144v51h91q134 0 245 15v-195h4q39 77 81.5 119t103.5 66q47 20 104 20q83 0 144 -43t81 -117q12 -41 15.5 -74t3.5 -106v-420h156v-51h-484v51h131v500q0 123 -18 163t-72 40q-71 0 -135.5 -60.5t-95.5 -156.5q-12 -36 -15.5 -62.5t-3.5 -87.5v-336h131v-51
h-467v51h144zM762 1157h94q-6 -89 -42.5 -137.5t-96.5 -48.5q-31 0 -62 8.5t-112 38.5q-91 33 -129 33q-34 0 -50 -18.5t-20 -63.5h-88q12 188 133 188q40 0 164 -39l98 -28q33 -11 39 -11q60 0 72 78z" />
    <glyph glyph-name="ograve" unicode="&#xf2;" 
d="M506 811q180 0 296 -118t116 -300q0 -170 -123 -294t-293 -124q-169 0 -288.5 122.5t-119.5 297.5t119.5 295.5t292.5 120.5zM506 768q-52 0 -93.5 -21t-60.5 -57q-25 -48 -28 -117q0 -14 -1 -74t-1 -106q0 -45 1 -104.5t1 -73.5q3 -71 28 -119q20 -35 61 -55.5t93 -20.5
t93 21t60 55q29 53 29 119q2 39 2 178q0 141 -2 180q0 67 -29 117q-19 37 -59.5 57.5t-93.5 20.5zM487 1202l129 -264h-102l-225 264h198z" />
    <glyph glyph-name="oacute" unicode="&#xf3;" 
d="M506 811q180 0 296 -118t116 -300q0 -170 -123 -294t-293 -124q-169 0 -288.5 122.5t-119.5 297.5t119.5 295.5t292.5 120.5zM506 768q-52 0 -93.5 -21t-60.5 -57q-25 -48 -28 -117q0 -14 -1 -74t-1 -106q0 -45 1 -104.5t1 -73.5q3 -71 28 -119q20 -35 61 -55.5t93 -20.5
t93 21t60 55q29 53 29 119q2 39 2 178q0 141 -2 180q0 67 -29 117q-19 37 -59.5 57.5t-93.5 20.5zM518 1202h199l-225 -264h-103z" />
    <glyph glyph-name="ocircumflex" unicode="&#xf4;" 
d="M506 811q180 0 296 -118t116 -300q0 -170 -123 -294t-293 -124q-169 0 -288.5 122.5t-119.5 297.5t119.5 295.5t292.5 120.5zM506 768q-52 0 -93.5 -21t-60.5 -57q-25 -48 -28 -117q0 -14 -1 -74t-1 -106q0 -45 1 -104.5t1 -73.5q3 -71 28 -119q20 -35 61 -55.5t93 -20.5
t93 21t60 55q29 53 29 119q2 39 2 178q0 141 -2 180q0 67 -29 117q-19 37 -59.5 57.5t-93.5 20.5zM420 1202h166l196 -264h-137l-139 182l-139 -182h-144z" />
    <glyph glyph-name="otilde" unicode="&#xf5;" 
d="M506 811q180 0 296 -118t116 -300q0 -170 -123 -294t-293 -124q-169 0 -288.5 122.5t-119.5 297.5t119.5 295.5t292.5 120.5zM506 768q-52 0 -93.5 -21t-60.5 -57q-25 -48 -28 -117q0 -14 -1 -74t-1 -106q0 -45 1 -104.5t1 -73.5q3 -71 28 -119q20 -35 61 -55.5t93 -20.5
t93 21t60 55q29 53 29 119q2 39 2 178q0 141 -2 180q0 67 -29 117q-19 37 -59.5 57.5t-93.5 20.5zM709 1157h94q-6 -89 -42.5 -137.5t-96.5 -48.5q-31 0 -63 8.5t-112 38.5q-91 33 -129 33q-34 0 -49.5 -18t-19.5 -64h-88q12 188 133 188q40 0 164 -39l98 -28q33 -11 39 -11
q60 0 72 78z" />
    <glyph glyph-name="odieresis" unicode="&#xf6;" 
d="M506 811q180 0 296 -118t116 -300q0 -170 -123 -294t-293 -124q-169 0 -288.5 122.5t-119.5 297.5t119.5 295.5t292.5 120.5zM506 768q-52 0 -93.5 -21t-60.5 -57q-25 -48 -28 -117q0 -14 -1 -74t-1 -106q0 -45 1 -104.5t1 -73.5q3 -71 28 -119q20 -35 61 -55.5t93 -20.5
t93 21t60 55q29 53 29 119q2 39 2 178q0 141 -2 180q0 67 -29 117q-19 37 -59.5 57.5t-93.5 20.5zM309 1135q38 0 65 -27t27 -64q0 -38 -27 -65t-65 -27q-37 0 -63.5 27t-26.5 65q0 37 26.5 64t63.5 27zM696 1135q37 0 63.5 -27t26.5 -64q0 -38 -26.5 -65t-63.5 -27
q-38 0 -64 27t-26 65q0 37 26 64t64 27z" />
    <glyph glyph-name="divide" unicode="&#xf7;" horiz-adv-x="1368" 
d="M596 1083q2 33 26.5 56.5t59.5 23.5q34 0 58 -25t24 -59q0 -35 -24 -60.5t-58 -25.5q-35 0 -60.5 26.5t-25.5 63.5zM596 252q0 35 25.5 60.5t60.5 25.5t59.5 -25t24.5 -59q0 -35 -24.5 -60.5t-59.5 -25.5t-60.5 25t-25.5 59zM139 725h1090v-127h-1090v127z" />
    <glyph glyph-name="oslash" unicode="&#xf8;" 
d="M911 834l-116 -134q123 -120 123 -307q0 -169 -123.5 -293.5t-290.5 -124.5q-143 0 -254 88l-107 -124l-26 26l104 125q-127 124 -127 307q0 173 119.5 293.5t290.5 120.5q149 0 262 -86l117 133zM688 575l-358 -419q9 -71 52 -103.5t128 -32.5q49 0 90.5 21t58.5 55
q20 38 25.5 81t5.5 155v63q0 42 -1 101t-1 75v4zM324 209l360 420q-8 74 -49 106.5t-127 32.5q-104 0 -143 -42t-41 -153l-2 -180l2 -180v-4z" />
    <glyph glyph-name="ugrave" unicode="&#xf9;" horiz-adv-x="1110" 
d="M920 786v-735h135v-51h-135h-70q-70 0 -129 -12v186h-4q-49 -98 -116.5 -142t-164.5 -44q-85 0 -143.5 33t-81.5 94q-15 39 -18 65.5t-3 112.5v442h-145v51h340v-528l2 -76q0 -79 20.5 -111t71.5 -32q38 0 79.5 21.5t72.5 56.5q51 60 70.5 129.5t19.5 187.5v301h-156v51
h355zM541 1202l129 -264h-103l-225 264h199z" />
    <glyph glyph-name="uacute" unicode="&#xfa;" horiz-adv-x="1110" 
d="M920 786v-735h135v-51h-135h-70q-70 0 -129 -12v186h-4q-49 -98 -116.5 -142t-164.5 -44q-85 0 -143.5 33t-81.5 94q-15 39 -18 65.5t-3 112.5v442h-145v51h340v-528l2 -76q0 -79 20.5 -111t71.5 -32q38 0 79.5 21.5t72.5 56.5q51 60 70.5 129.5t19.5 187.5v301h-156v51
h355zM571 1202h199l-225 -264h-103z" />
    <glyph glyph-name="ucircumflex" unicode="&#xfb;" horiz-adv-x="1110" 
d="M920 786v-735h135v-51h-135h-70q-70 0 -129 -12v186h-4q-49 -98 -116.5 -142t-164.5 -44q-85 0 -143.5 33t-81.5 94q-15 39 -18 65.5t-3 112.5v442h-145v51h340v-528l2 -76q0 -79 20.5 -111t71.5 -32q38 0 79.5 21.5t72.5 56.5q51 60 70.5 129.5t19.5 187.5v301h-156v51
h355zM473 1202h166l197 -264h-138l-139 182l-139 -182h-144z" />
    <glyph glyph-name="udieresis" unicode="&#xfc;" horiz-adv-x="1110" 
d="M920 786v-735h135v-51h-135h-70q-70 0 -129 -12v186h-4q-49 -98 -116.5 -142t-164.5 -44q-85 0 -143.5 33t-81.5 94q-15 39 -18 65.5t-3 112.5v442h-145v51h340v-528l2 -76q0 -79 20.5 -111t71.5 -32q38 0 79.5 21.5t72.5 56.5q51 60 70.5 129.5t19.5 187.5v301h-156v51
h355zM362 1135q38 0 65.5 -27t27.5 -64q0 -38 -27.5 -65t-65.5 -27q-37 0 -63.5 27t-26.5 65q0 37 26.5 64t63.5 27zM750 1135q37 0 63.5 -27t26.5 -64q0 -38 -26.5 -65t-63.5 -27q-38 0 -64.5 27t-26.5 65q0 37 26.5 64t64.5 27z" />
    <glyph glyph-name="yacute" unicode="&#xfd;" horiz-adv-x="1110" 
d="M371 735l282 -547l244 547h-174v51h354v-51h-133l-405 -913l-27 -55q-73 -158 -115 -213.5t-104 -75.5q-32 -8 -49 -8q-48 0 -79.5 31.5t-31.5 80.5q0 38 24.5 64t61.5 26q46 0 80 -51q13 -23 21.5 -31t19.5 -8q26 0 55.5 46t96.5 194l65 147l-397 766h-117v51h481v-51
h-153zM571 1202h199l-225 -264h-103z" />
    <glyph glyph-name="thorn" unicode="&#xfe;" horiz-adv-x="1114" 
d="M397 1305v-664h4q47 88 106.5 129t137.5 41q157 0 263 -116.5t106 -286.5q0 -108 -53.5 -205.5t-143.5 -156t-190 -58.5q-140 0 -226 143h-4v-598h162v-57h-491v57h129v1708h-140v49h140q100 0 200 15zM788 391q0 58 -1 131t-1 88q-3 61 -24 95q-15 26 -49.5 43.5
t-71.5 17.5q-47 0 -92.5 -21.5t-79.5 -58.5q-43 -50 -58.5 -112t-15.5 -189q0 -89 14 -141.5t52 -106.5q73 -110 184 -110q37 0 67.5 16t43.5 43q22 41 27 91.5t5 213.5z" />
    <glyph glyph-name="ydieresis" unicode="&#xff;" horiz-adv-x="1110" 
d="M371 735l282 -547l244 547h-174v51h354v-51h-133l-405 -913l-27 -55q-73 -158 -115 -213.5t-104 -75.5q-32 -8 -49 -8q-48 0 -79.5 31.5t-31.5 80.5q0 38 24.5 64t61.5 26q46 0 80 -51q13 -23 21.5 -31t19.5 -8q26 0 55.5 46t96.5 194l65 147l-397 766h-117v51h481v-51
h-153zM362 1135q38 0 65.5 -27t27.5 -64q0 -38 -27.5 -65t-65.5 -27q-37 0 -63.5 27t-26.5 65q0 37 26.5 64t63.5 27zM750 1135q37 0 63.5 -27t26.5 -64q0 -38 -26.5 -65t-63.5 -27q-38 0 -64.5 27t-26.5 65q0 37 26.5 64t64.5 27z" />
    <glyph glyph-name="dotlessi" unicode="&#x131;" horiz-adv-x="555" 
d="M379 801v-750h131v-51h-465v51h141v684h-141v51h141q102 0 193 15z" />
    <glyph glyph-name="Lslash" unicode="&#x141;" horiz-adv-x="1323" 
d="M547 731v-680h303q128 0 190 35t105 131q38 74 59 174q2 5 6 21.5t7 25.5h47l-37 -438h-1127v51h211v490l-250 -203v65l250 203v684h-211v51h672v-51h-225v-491l258 209v-66z" />
    <glyph glyph-name="lslash" unicode="&#x142;" horiz-adv-x="555" 
d="M379 719v-668h141v-51h-479v51h145v508l-143 -119v68l143 119v663h-145v51h137q106 0 201 15v-570l143 119v-67z" />
    <glyph glyph-name="OE" unicode="&#x152;" horiz-adv-x="2004" 
d="M1905 446l-15 -446h-725q-170 0 -227 -8l-109 -17q-47 -6 -90 -6q-156 0 -266.5 50t-206.5 165q-166 199 -166 473q0 201 81.5 365t224.5 257t319 93q62 0 119 -8l108 -16q44 -7 131 -7h760l19 -360h-47q-10 88 -35.5 144t-71.5 96q-44 40 -97 54.5t-149 14.5h-215v-577
h62q119 0 168.5 53t68.5 197h47v-564h-47q-11 148 -62.5 206.5t-174.5 58.5h-62v-613h191q132 0 204 26.5t123 92.5q75 99 97 276h43zM1022 51v1239h-14q-51 0 -107 10l-80 13q-41 6 -84 6q-128 0 -212.5 -54t-110.5 -153q-22 -76 -28 -148t-9 -278v-68q0 -191 10 -277
t41 -155q27 -61 84 -100q98 -66 236 -66q32 0 67 7l86 12q36 7 121 12z" />
    <glyph glyph-name="oe" unicode="&#x153;" horiz-adv-x="1556" 
d="M1464 451h-536l-2 -70v-59v-19q0 -149 46.5 -214.5t153.5 -65.5q114 0 188.5 64.5t102.5 186.5h47q-25 -146 -131 -229q-85 -70 -221 -70q-94 0 -161.5 26.5t-129.5 86.5q-75 -63 -142 -88t-163 -25q-181 0 -302.5 119.5t-121.5 298.5q0 180 127.5 299t319.5 119
q163 0 290 -115q109 115 265 115q158 0 258 -97t112 -263zM928 496h319q2 35 2 65q0 113 -37.5 160t-128.5 47q-157 0 -157 -184v-43q0 -25 2 -45zM731 385v33q0 152 -8.5 200.5t-40.5 88.5q-52 61 -154 61q-94 0 -147 -53.5t-59 -153.5q-5 -118 -5 -219v-109q3 -63 29 -120
q52 -93 184 -93q51 0 92.5 17.5t63.5 46.5q31 41 37 84.5t8 216.5z" />
    <glyph glyph-name="Scaron" unicode="&#x160;" horiz-adv-x="1110" 
d="M920 1356l8 -348h-47q-32 94 -61.5 144.5t-76.5 92.5q-89 80 -217 80q-123 0 -208 -68.5t-85 -169.5q0 -98 89 -153q39 -24 86.5 -38.5t146.5 -31.5q98 -18 148 -32.5t94 -38.5q56 -29 102 -78q107 -116 107 -287q0 -195 -127.5 -327t-313.5 -132q-88 0 -154.5 24.5
t-160.5 90.5l-94 -84h-35v375h43q31 -92 64 -148.5t85 -105.5q115 -103 248 -103q135 0 234.5 87.5t99.5 205.5q0 104 -73 177.5t-199 95.5l-152 26q-63 11 -130 43.5t-110 73.5q-104 101 -104 266q0 68 32 143t83 126q107 110 290 110q80 0 144.5 -22t140.5 -76
q36 36 64 82h39zM639 1450h-166l-197 264h138l139 -182l139 182h144z" />
    <glyph glyph-name="scaron" unicode="&#x161;" horiz-adv-x="768" 
d="M625 795v-224h-41q-25 101 -79 149t-145 48q-74 0 -127 -40t-53 -95q0 -51 43.5 -74.5t165.5 -38.5q299 -35 299 -272q0 -117 -76 -195t-190 -78q-63 0 -110 19.5t-113 73.5l-70 -60h-35v295h35q24 -72 34.5 -97t31.5 -59q35 -58 96.5 -93.5t124.5 -35.5q82 0 143.5 50
t61.5 116q0 61 -46 87t-194 48q-107 17 -158 42t-86 77q-37 58 -37 125q0 109 73.5 178.5t188.5 69.5q58 0 101.5 -17.5t89.5 -58.5q25 32 41 60h31zM467 938h-166l-197 264h138l139 -182l139 182h144z" />
    <glyph glyph-name="Ydieresis" unicode="&#x178;" horiz-adv-x="1556" 
d="M61 1341h670v-51h-219l393 -592l387 592h-243v51h475v-51h-172l-422 -641v-598h223v-51h-690v51h229v563l-450 676h-181v51zM586 1647q38 0 65 -27t27 -64q0 -38 -27 -65t-65 -27q-37 0 -63.5 27t-26.5 65q0 37 26.5 64t63.5 27zM973 1647q37 0 63.5 -27t26.5 -64
q0 -38 -26.5 -65t-63.5 -27q-38 0 -64 27t-26 65q0 37 26 64t64 27z" />
    <glyph glyph-name="Zcaron" unicode="&#x17d;" horiz-adv-x="1216" 
d="M1098 0h-1028v51l770 1239h-316q-117 0 -182 -30t-102 -101q-22 -40 -31.5 -70.5t-24.5 -107.5h-49l23 360h962v-36l-782 -1254h328q157 0 220 31t118 137q31 58 43.5 101t23.5 120h49zM692 1450h-166l-196 264h137l139 -182l139 182h144z" />
    <glyph glyph-name="zcaron" unicode="&#x17e;" horiz-adv-x="874" 
d="M117 473v313h671v-43l-483 -700h139q135 0 203 64.5t103 228.5h38v-336h-702v51l481 692h-139q-78 0 -115.5 -11.5t-66.5 -45.5q-67 -79 -88 -213h-41zM520 938h-166l-196 264h137l139 -182l139 182h144z" />
    <glyph glyph-name="florin" unicode="&#x192;" horiz-adv-x="999" 
d="M684 874h178l-16 -65h-174q-23 -123 -84 -377q-67 -260 -103 -383q-133 -479 -364 -479q-54 0 -87.5 29.5t-33.5 78.5q0 34 24 59t56 25t53 -28q10 -13 10 -27q0 -18 -10 -33l-10 -10q-4 -8 -4 -16q0 -7 7.5 -13t16.5 -6q105 0 166 297l86 422l105 422l8 39h-176l14 65
q15 3 23 3q39 2 60 4t42.5 10.5t31.5 17t23.5 31.5t22 46.5t24.5 68.5q54 157 97 222.5t112 94.5q35 14 76 14q62 0 100.5 -30.5t38.5 -79.5q0 -34 -19 -56t-50 -22q-24 0 -43 17t-19 38q0 17 13 37q6 9 6 13q2 4 2 10q0 28 -37 28q-49 0 -74 -42t-45 -160l-35 -199z" />
    <glyph glyph-name="circumflex" unicode="&#x2c6;" horiz-adv-x="681" 
d="M258 1202h166l197 -264h-138l-139 182l-139 -182h-144z" />
    <glyph glyph-name="ring" unicode="&#x2da;" horiz-adv-x="681" 
d="M520 1071q0 -74 -52.5 -126t-127.5 -52q-74 0 -126 52.5t-52 125.5q0 75 52 127.5t126 52.5q75 0 127.5 -52.5t52.5 -127.5zM459 1069q0 47 -35 81t-84 34q-47 0 -80 -34t-33 -81q0 -46 33.5 -78.5t79.5 -32.5q49 0 84 32.5t35 78.5z" />
    <glyph glyph-name="tilde" unicode="&#x2dc;" horiz-adv-x="681" 
d="M547 1157h94q-6 -89 -42.5 -137.5t-96.5 -48.5q-31 0 -62 8.5t-112 38.5q-91 33 -129 33q-34 0 -50 -18.5t-20 -63.5h-88q12 188 133 188q40 0 164 -39l98 -28q33 -11 39 -11q60 0 72 78z" />
    <glyph glyph-name="endash" unicode="&#x2013;" horiz-adv-x="1024" 
d="M-8 457h1040v-64h-1040v64z" />
    <glyph glyph-name="emdash" unicode="&#x2014;" horiz-adv-x="2048" 
d="M-12 457h2072v-64h-2072v64z" />
    <glyph glyph-name="quoteleft" unicode="&#x2018;" horiz-adv-x="555" 
d="M311 1354l31 -33q-85 -58 -135.5 -139t-50.5 -158q0 -35 12 -58.5t31 -23.5q12 0 17.5 7.5t16.5 37.5q11 29 36 46.5t59 17.5q46 0 74 -30t28 -81q0 -58 -39.5 -95.5t-99.5 -37.5q-78 0 -132.5 61.5t-54.5 149.5q0 94 60 190q31 46 59.5 75t87.5 71z" />
    <glyph glyph-name="quoteright" unicode="&#x2019;" horiz-adv-x="555" 
d="M246 807l-35 35q66 57 93.5 86t51.5 69q41 71 41 152q0 31 -13.5 52.5t-33.5 21.5q-10 0 -16 -8t-15 -35q-11 -30 -35.5 -48t-56.5 -18q-44 0 -75 32.5t-31 78.5q0 54 41 91.5t100 37.5q80 0 134.5 -60t54.5 -149q0 -169 -205 -338z" />
    <glyph glyph-name="quotesinglbase" unicode="&#x201a;" horiz-adv-x="555" 
d="M244 -326l-31 33q98 89 139 154t41 131q0 39 -11 64.5t-28 25.5q-12 0 -16.5 -6.5t-13.5 -36.5q-9 -29 -37 -48.5t-62 -19.5q-46 0 -77 33t-31 82q0 57 42 94t105 37q79 0 133 -58.5t54 -144.5q0 -48 -18.5 -102.5t-49.5 -93.5q-30 -40 -51 -62.5t-88 -81.5z" />
    <glyph glyph-name="quotedblleft" unicode="&#x201c;" 
d="M315 1356l29 -31q-101 -88 -139.5 -151.5t-38.5 -145.5q0 -36 10.5 -57t28.5 -21q11 0 14 6q6 9 21 39q26 54 94 54q44 0 75 -31.5t31 -77.5q0 -51 -43 -91t-98 -40q-78 0 -132 59t-54 144q0 81 35 156t100 132q43 38 67 56zM780 1356l29 -29q-60 -51 -87.5 -81.5
t-53.5 -74.5q-45 -76 -45 -155q0 -42 24 -66q8 -4 15 -4q12 0 17.5 6t14.5 29q11 28 38 45.5t59 17.5q44 0 76 -32t32 -76q0 -51 -45 -89t-106 -38q-75 0 -126 60t-51 149q0 75 39.5 152t108.5 137q33 29 61 49z" />
    <glyph glyph-name="quotedblright" unicode="&#x201d;" 
d="M250 813l-33 29q104 98 142 159.5t38 131.5q0 38 -12.5 62t-32.5 24q-12 0 -18 -7.5t-12 -31.5q-7 -30 -35 -50t-62 -20q-44 0 -75 34t-31 83q0 53 42.5 91t100.5 38q78 0 134.5 -60t56.5 -145q0 -70 -39 -147t-107 -142q-26 -26 -57 -49zM694 813l-35 31
q187 152 187 295q0 34 -13.5 57t-33.5 23q-12 0 -19 -8.5t-14 -34.5q-9 -30 -33.5 -48t-56.5 -18q-44 0 -75.5 34t-31.5 81q0 55 41 93t101 38q76 0 131 -60t55 -143q0 -76 -39.5 -156t-109.5 -141q-15 -15 -54 -43z" />
    <glyph glyph-name="quotedblbase" unicode="&#x201e;" 
d="M225 -324l-28 35q182 149 182 287q0 35 -13.5 58.5t-33.5 23.5q-9 0 -14.5 -6.5t-12.5 -30.5q-9 -29 -34.5 -46t-59.5 -17q-47 0 -79 31t-32 77q0 54 41.5 91.5t102.5 37.5q82 0 136 -59t54 -148q0 -80 -40.5 -158.5t-110.5 -132.5q-15 -13 -58 -43zM692 -326l-26 37
q184 133 184 289q0 32 -13 55t-30 23q-14 0 -25 -31q-25 -70 -102 -70q-46 0 -76.5 30.5t-30.5 76.5q0 55 43 93t105 38q83 0 132.5 -58.5t49.5 -156.5q0 -76 -43 -156t-112 -133q-43 -29 -56 -37z" />
    <glyph glyph-name="dagger" unicode="&#x2020;" 
d="M526 788l2 -38q7 -127 21 -187.5t51 -136.5q-21 -82 -29.5 -133.5t-19.5 -161.5q-23 -285 -25 -580v-63h-49l-2 63q-3 354 -24 586q-9 104 -17.5 155t-30.5 134q34 75 50.5 152.5t23.5 209.5h-12q-52 0 -82 -5.5t-98 -28.5q-76 -25 -117 -25q-53 0 -85 24t-32 64
q0 38 32.5 62t86.5 24q47 0 117 -26l63 -23q37 -12 125 -12v16q0 75 -14 127l-21 88q-24 105 -24 166q0 60 23 95.5t63 35.5t64 -36t24 -93q0 -61 -27 -172l-22 -94q-15 -54 -15 -121v-12h15q62 0 96 10q4 2 25.5 8.5t39.5 13.5q82 31 136 31q52 0 83 -24t31 -64t-30 -65
t-76 -25q-41 0 -141 33q-53 18 -84.5 23t-94.5 5z" />
    <glyph glyph-name="daggerdbl" unicode="&#x2021;" 
d="M754 856l-60 25q-73 31 -168 34q5 -60 22 -98t58 -78q-82 -140 -82 -317q0 -149 82 -301q-69 -80 -80 -174q72 2 156 33q14 4 27 8.5t24.5 8.5t14.5 5q33 10 61 10q43 0 74.5 -26.5t31.5 -61.5q0 -37 -31.5 -63.5t-74.5 -26.5q-34 0 -64 10l-53 23q-80 30 -166 33
q5 -69 37 -162q23 -63 29 -86t6 -49q0 -49 -28.5 -82t-69.5 -33q-38 0 -64 34t-26 85q0 52 32 131l23 59q18 47 20 103q-93 -5 -180 -39q-84 -29 -112 -29q-46 0 -77.5 27t-31.5 67q0 35 30 58.5t76 23.5q27 0 46 -4t69 -22q102 -33 180 -35q-7 51 -17.5 75t-41.5 66
q0 1 -9.5 13t-15.5 20q82 160 82 307q0 84 -15.5 143.5t-66.5 167.5q6 10 25 35q35 45 44.5 69t14.5 72q-54 -2 -86.5 -8.5t-91.5 -29.5q-83 -33 -110 -33q-45 2 -77 28.5t-32 63.5t32 62.5t77 25.5q37 0 114 -27q66 -24 85.5 -29t49.5 -7q15 -3 39 -3q-5 52 -11 78.5
t-28 81.5q-30 80 -30 133t25 86t65 33q38 0 65 -33t27 -80q0 -49 -33 -137q-21 -56 -27 -80t-12 -82q92 3 168 29l66 25q30 10 55 10q44 0 74.5 -24.5t30.5 -61.5q0 -36 -31.5 -64t-71.5 -28q-29 0 -63 12z" />
    <glyph glyph-name="bullet" unicode="&#x2022;" horiz-adv-x="716" 
d="M358 928q104 0 177 -73t73 -177t-72.5 -178t-175.5 -74q-104 0 -177.5 73.5t-73.5 176.5q0 105 72.5 178.5t176.5 73.5z" />
    <glyph glyph-name="ellipsis" unicode="&#x2026;" horiz-adv-x="1984" 
d="M989 221q54 0 91.5 -37t37.5 -90q0 -51 -37 -87t-90 -36t-89 36.5t-36 88.5t36 88.5t87 36.5zM328 221q54 0 91.5 -37t37.5 -90q0 -51 -37 -87t-90 -36q-51 0 -88 36.5t-37 88.5t36 88.5t87 36.5zM1651 221q54 0 91.5 -37t37.5 -90q0 -51 -37 -87t-90 -36t-89 36.5
t-36 88.5t36 88.5t87 36.5z" />
    <glyph glyph-name="perthousand" unicode="&#x2030;" horiz-adv-x="1984" 
d="M1391 279q0 152 78 255t192 103q113 0 189.5 -101.5t76.5 -252.5q0 -143 -78 -244.5t-188 -101.5q-109 0 -189.5 102t-80.5 240zM1563 285q1 -130 10 -196.5t29 -94t59 -27.5q54 0 75 67t21 238q0 189 -20.5 262.5t-73.5 73.5q-58 0 -79 -62.5t-21 -232.5v-28zM750 281
q0 151 78 253.5t192 102.5q110 0 189 -101t79 -243q0 -148 -81 -252t-195 -104q-107 0 -184.5 102t-77.5 242zM922 276q2 -98 6.5 -155t16 -93.5t29.5 -48.5t48 -12q50 0 72 65.5t22 215.5q0 157 -7.5 230.5t-27 101.5t-61.5 28q-57 0 -77.5 -61.5t-20.5 -231.5v-39z
M63 1018q0 142 79 246t186 104q114 0 194 -102.5t80 -247.5q0 -149 -79.5 -249.5t-198.5 -100.5q-106 0 -183.5 104t-77.5 246zM236 1034q0 -6 -1.5 -20t-1.5 -21q0 -169 21.5 -233t77.5 -64q55 0 75.5 63.5t20.5 231.5q0 136 -9 209t-29 105t-58 32q-54 0 -74.5 -62.5
t-21.5 -240.5zM1212 1368l-981 -1431h-90l981 1431h90z" />
    <glyph glyph-name="guilsinglleft" unicode="&#x2039;" horiz-adv-x="598" 
d="M350 33l-299 397l299 393h193l-299 -393l299 -397h-193z" />
    <glyph glyph-name="guilsinglright" unicode="&#x203a;" horiz-adv-x="575" 
d="M236 823l299 -395l-299 -395h-191l297 395l-297 395h191z" />
    <glyph glyph-name="fraction" unicode="&#x2044;" horiz-adv-x="661" 
d="M868 1317l-985 -1378h-90l983 1378h92z" />
    <glyph glyph-name="trademark" unicode="&#x2122;" horiz-adv-x="2007" 
d="M51 1356h729l21 -201h-33q-14 80 -56 110.5t-139 30.5h-73v-579q0 -83 17.5 -106t86.5 -27v-35h-375v35q69 7 85 28t16 103v581h-76q-93 0 -133.5 -30.5t-57.5 -110.5h-32zM1157 1356l273 -572l264 572h278v-37q-72 -1 -90 -24t-18 -111v-467q0 -87 16.5 -108t91.5 -25
v-35h-397v35q77 3 98 26t21 105v491h-4l-301 -657h-33l-305 649h-4v-481q0 -83 17.5 -108t76.5 -25h37v-35h-308v35q73 0 93 23t20 108v467q0 92 -19 114.5t-94 22.5v37h287z" />
    <glyph glyph-name="minus" unicode="&#x2212;" horiz-adv-x="1366" 
d="M139 729h1088v-131h-1088v131z" />
  </font>
</defs>
</svg>
